<?xml version="1.0" standalone="no"?>
<!DOCTYPE svg PUBLIC "-//W3C//DTD SVG 1.1//EN" "http://www.w3.org/Graphics/SVG/1.1/DTD/svg11.dtd" >
<svg xmlns="http://www.w3.org/2000/svg" xmlns:xlink="http://www.w3.org/1999/xlink" version="1.1">
<metadata>
Created by FontForge 20170731 at Tue Aug 30 22:46:50 2016
 By Aleksey,,,
Copyright (c) 2016 by Steppot. All rights reserved.
</metadata>
<defs>
<font id="Lunchtype" horiz-adv-x="560" >
  <font-face 
    font-family="Lunchtype22"
    font-weight="400"
    font-stretch="normal"
    units-per-em="1000"
    panose-1="2 0 5 9 0 0 0 2 0 4"
    ascent="800"
    descent="-200"
    x-height="491"
    cap-height="693"
    bbox="-58 -213 1065 925"
    underline-thickness="50"
    underline-position="-150"
    unicode-range="U+0020-2212"
  />
<missing-glyph horiz-adv-x="500" 
 />
    <glyph glyph-name=".notdef" horiz-adv-x="500" 
 />
    <glyph glyph-name=".null" horiz-adv-x="0" 
 />
    <glyph glyph-name="nonmarkingreturn" horiz-adv-x="333" 
 />
    <glyph glyph-name="space" unicode=" " horiz-adv-x="300" 
 />
    <glyph glyph-name="exclam" unicode="!" horiz-adv-x="242" 
d="M91 212l-16 305v176h92v-176l-16 -305h-60zM168 0h-94v98h94v-98z" />
    <glyph glyph-name="quotedbl" unicode="&#x22;" horiz-adv-x="457" 
d="M182 444h-60l-13 148v112h86v-112zM335 444h-60l-12 148v112h85v-112z" />
    <glyph glyph-name="numbersign" unicode="#" horiz-adv-x="643" 
d="M342 0l35 200h-161l-36 -200h-78l36 200h-104v76h119l23 137h-117v80h132l39 211h77l-38 -211h158l37 211h79l-38 -211h104v-80h-118l-24 -137h104v-76h-116l-34 -200h-79zM256 413l-25 -137h158l25 137h-158z" />
    <glyph glyph-name="dollar" unicode="$" horiz-adv-x="571" 
d="M114 207q5 -61 42 -96t96 -44v261l-29 7q-83 19 -128 62.5t-45 123.5q0 41 15 73t42 55t64 36.5t81 17.5v55h75v-56q54 -5 92.5 -22.5t63.5 -44t36.5 -61t11.5 -73.5h-84q-4 54 -34.5 87t-85.5 41v-234l25 -5q43 -9 78 -25t59.5 -40t37.5 -57t13 -78q0 -47 -16.5 -82.5
t-45.5 -60t-68 -38.5t-83 -17v-59h-75v59q-101 8 -160 58.5t-67 156.5h89zM455 186q0 30 -10 50.5t-27 34.5t-40.5 23t-50.5 16v-242q23 4 46 13t41 24t29.5 35t11.5 46zM131 524q0 -46 31.5 -71.5t89.5 -39.5v216q-56 -7 -88.5 -35t-32.5 -70z" />
    <glyph glyph-name="percent" unicode="%" horiz-adv-x="911" 
d="M690 704l-421 -748l-60 33l420 746zM606 189q0 -20 2.5 -43.5t10 -44.5t23.5 -35t43 -14q26 0 41.5 14t23.5 35t10 45t2 43q0 20 -3 42t-11 40t-23.5 30t-39.5 12q-26 0 -41.5 -12t-24 -30.5t-11 -40.5t-2.5 -41zM550 195q0 32 6.5 63.5t22 56.5t41.5 40.5t65 15.5
q40 0 66 -16t41 -41.5t21 -58t6 -65.5q0 -196 -134 -196q-67 0 -101 49t-34 152zM148 517q0 -20 2.5 -43.5t10 -44.5t23.5 -35t43 -14q26 0 41.5 14t23.5 35t10 45t2 43q0 20 -3 42t-11 40t-23.5 30t-39.5 12q-26 0 -41.5 -12t-24 -30.5t-11 -40.5t-2.5 -41zM92 523
q0 32 6.5 63.5t22 56.5t41.5 40.5t65 15.5q40 0 66 -16t41 -41.5t21 -58t6 -65.5q0 -196 -134 -196q-67 0 -101 49t-34 152z" />
    <glyph glyph-name="ampersand" unicode="&#x26;" horiz-adv-x="561" 
d="M510 305q0 -46 -9 -96t-37 -95q13 -13 23 -22t19.5 -14.5t19.5 -8t23 -2.5q4 0 27 3v-66q-19 -4 -35 -4q-23 0 -40 5.5t-30.5 14t-24.5 19t-21 21.5l-4 4q-36 -32 -73 -48t-86 -16q-47 0 -88.5 12.5t-73 37.5t-49.5 63t-18 89q0 36 9.5 63.5t26 48.5t40 37t52.5 30
q-27 38 -39.5 69t-12.5 75q0 72 46.5 110.5t124.5 38.5q30 0 56.5 -8.5t46 -25.5t31 -42.5t11.5 -59.5q0 -33 -8.5 -57t-26.5 -43.5t-46.5 -37.5t-68.5 -41l142 -190q18 33 21.5 69.5t3.5 66.5h68zM111 194q0 -32 13 -55.5t34 -39.5t48 -23.5t56 -7.5q32 0 57.5 12t54.5 36
l-171 212q-21 -11 -38 -23t-29 -27.5t-18.5 -36t-6.5 -47.5zM360 532q0 38 -23 56t-64 18q-17 0 -33.5 -4.5t-30 -14.5t-21.5 -24.5t-8 -35.5q0 -19 3 -33.5t9.5 -27.5t17 -26t24.5 -30q18 9 39.5 21.5t41 28t32.5 33.5t13 39z" />
    <glyph glyph-name="quotesingle" unicode="'" horiz-adv-x="296" 
d="M178 444h-60l-13 148v112h86v-112z" />
    <glyph glyph-name="parenleft" unicode="(" horiz-adv-x="271" 
d="M237 749l44 -35q-67 -90 -110 -196.5t-43 -230.5q0 -123 43 -229.5t110 -196.5l-44 -34q-85 94 -137.5 209.5t-52.5 251.5t52.5 251.5t137.5 209.5z" />
    <glyph glyph-name="parenright" unicode=")" horiz-adv-x="271" 
d="M34 749q85 -94 137.5 -209.5t52.5 -251.5t-52.5 -251.5t-137.5 -209.5l-44 34q67 90 110 196.5t43 229.5q0 124 -43 230.5t-110 196.5z" />
    <glyph glyph-name="asterisk" unicode="*" horiz-adv-x="423" 
d="M174 693h75l-7 -146l120 78l37 -62l-131 -66l131 -66l-37 -62l-120 77l7 -145h-75l7 145l-121 -78l-36 63l130 65l-130 67l37 62l120 -78z" />
    <glyph glyph-name="plus" unicode="+" horiz-adv-x="525" 
d="M477 270h-176v-173h-76v173h-177v74h177v171h76v-171h176v-74z" />
    <glyph glyph-name="comma" unicode="," horiz-adv-x="270" 
d="M154 -106h-61l21 106h-31v103h103v-103z" />
    <glyph glyph-name="hyphen" unicode="-" horiz-adv-x="389" 
d="M339 256h-289v73h289v-73z" />
    <glyph glyph-name="period" unicode="." horiz-adv-x="270" 
d="M186 0h-103v103h103v-103z" />
    <glyph glyph-name="slash" unicode="/" horiz-adv-x="368" 
d="M386 759l-333 -935h-71l333 935h71z" />
    <glyph glyph-name="zero" unicode="0" horiz-adv-x="586" 
d="M131 354q1 -41 5 -90t20.5 -92t48.5 -72t88 -29q55 0 87.5 29.5t49 72.5t21 92t4.5 89q0 41 -6.5 86.5t-24 83t-49 62t-82.5 24.5q-53 0 -85 -25t-49 -63t-22.5 -83t-5.5 -85zM42 364q0 60 11.5 118.5t40.5 105t77 75.5t122 29q75 0 123.5 -30t77 -78t39.5 -108.5
t11 -121.5q0 -184 -63 -274.5t-188 -90.5q-124 0 -187.5 92t-63.5 283z" />
    <glyph glyph-name="one" unicode="1" horiz-adv-x="448" 
d="M328 683v-683h-86v501h-155v56q31 0 59.5 8t50.5 23t34.5 37t12.5 49v9h84z" />
    <glyph glyph-name="two" unicode="2" horiz-adv-x="527" 
d="M24 75q0 62 26.5 106.5t66 78.5t85.5 60.5t85.5 53.5t66 58t26.5 74q0 55 -34 82t-97 27q-66 0 -95.5 -30t-31.5 -84h-84q1 91 55.5 142t155.5 51q100 0 155.5 -49t55.5 -139q0 -61 -25.5 -102t-64 -71t-83 -54.5t-83 -51.5t-64 -62t-25.5 -86h350v-79h-441v75z" />
    <glyph glyph-name="three" unicode="3" horiz-adv-x="546" 
d="M235 314v74h20q39 0 66 6t43.5 19.5t23.5 35t7 52.5q0 52 -30 81t-96 29q-64 0 -98.5 -29t-36.5 -83h-84q2 93 58 142.5t156 49.5q103 0 159.5 -49.5t56.5 -140.5q0 -54 -23.5 -92t-59.5 -56q46 -19 74.5 -61t28.5 -102q0 -45 -16.5 -82t-47 -63.5t-74.5 -40.5t-98 -14
q-108 0 -170.5 51.5t-64.5 142.5h84q1 -30 13 -51.5t32.5 -35.5t47.5 -20.5t58 -6.5q72 0 112 30t40 90q0 124 -161 124h-20z" />
    <glyph glyph-name="four" unicode="4" horiz-adv-x="571" 
d="M530 121h-93v-121h-83v121h-326v63l317 496h92v-481h93v-78zM354 199v364l-227 -364h227z" />
    <glyph glyph-name="five" unicode="5" horiz-adv-x="531" 
d="M55 322l18 358h376v-80h-299l-7 -178q50 41 130 41q102 0 156.5 -61t54.5 -175q0 -54 -15.5 -97.5t-45 -74.5t-71.5 -48t-94 -17q-48 0 -88.5 12.5t-70.5 37t-47 60.5t-17 82h85q1 -60 39.5 -85.5t98.5 -25.5q139 0 139 157q0 81 -35 119t-98 38q-51 0 -78.5 -13
t-47.5 -50h-83z" />
    <glyph glyph-name="six" unicode="6" horiz-adv-x="552" 
d="M409 540q-3 44 -34 67.5t-85 23.5q-34 0 -64 -16t-52.5 -49.5t-36 -84.5t-13.5 -121q7 16 25 34t42.5 33t53.5 25t59 10q48 0 87 -16.5t66.5 -47t42.5 -74t15 -98.5q0 -56 -18 -100t-49.5 -74t-74.5 -46t-92 -16q-55 0 -100 20.5t-76.5 60.5t-49 97.5t-17.5 132.5
q0 111 20.5 187.5t55 124.5t80 69.5t94.5 21.5q47 0 85 -12.5t64.5 -34t41 -51.5t14.5 -66h-84zM138 225q0 -32 12 -60.5t31.5 -50t45.5 -34t54 -12.5q36 0 63.5 12.5t46.5 34t28.5 50t9.5 60.5q0 28 -6 56.5t-22.5 51.5t-44.5 37t-71 14q-33 0 -60 -13t-46.5 -34.5
t-30 -50.5t-10.5 -61z" />
    <glyph glyph-name="seven" unicode="7" horiz-adv-x="554" 
d="M507 680v-80q-34 -36 -66 -76q-27 -34 -56 -77.5t-47 -88.5q-30 -74 -47 -138.5t-26 -113.5q-11 -57 -14 -106h-92q2 46 12 101q8 48 25.5 111.5t49.5 137.5q27 62 57 108.5t56 78.5q30 37 59 63h-368v80h457z" />
    <glyph glyph-name="eight" unicode="8" horiz-adv-x="555" 
d="M40 197q0 27 7.5 53t21.5 48.5t33.5 40t43.5 27.5q-43 25 -64 63.5t-21 84.5t18.5 81.5t49 59.5t69.5 36.5t81 12.5q44 0 83 -13.5t68.5 -38t46.5 -60t17 -78.5q0 -49 -22 -86.5t-62 -61.5q25 -12 45 -30t33 -40t20 -47.5t7 -51.5q0 -53 -19 -92t-51 -64.5t-75 -38
t-91 -12.5q-51 0 -95 13t-76 39t-50 64.5t-18 90.5zM127 199q0 -36 12 -60.5t32.5 -40t48 -22.5t59.5 -7q67 0 108 31t41 99q0 60 -40 94.5t-109 34.5q-70 0 -111 -34.5t-41 -94.5zM410 514q0 54 -36 83.5t-95 29.5q-60 0 -96.5 -29.5t-36.5 -83.5q0 -60 35 -86.5t98 -26.5
q61 0 96 26.5t35 86.5z" />
    <glyph glyph-name="nine" unicode="9" horiz-adv-x="538" 
d="M135 167q2 -19 9 -38t21.5 -34.5t37.5 -25t56 -9.5q76 0 118.5 66t42.5 204q-8 -17 -23.5 -33.5t-38 -30t-51 -22t-61.5 -8.5q-56 0 -96 19t-66 51t-38 75t-12 90q0 49 16 91.5t45.5 74t70 49.5t89.5 18q67 0 112.5 -24.5t73.5 -67t39.5 -101.5t11.5 -128
q0 -88 -10.5 -160.5t-36.5 -124t-69.5 -80t-109.5 -28.5q-64 0 -104 17t-63.5 43.5t-33 57.5t-12.5 59h82zM406 479q0 32 -11.5 59t-31.5 46.5t-47 30.5t-59 11t-58.5 -12.5t-45 -33t-28.5 -47t-10 -54.5q0 -29 7.5 -58.5t24 -54t43.5 -40t67 -15.5q69 0 109 44t40 124z" />
    <glyph glyph-name="colon" unicode=":" horiz-adv-x="270" 
d="M186 0h-103v103h103v-103zM186 350h-103v103h103v-103z" />
    <glyph glyph-name="semicolon" unicode=";" horiz-adv-x="269" 
d="M154 -106h-61l21 106h-31v103h103v-103zM186 350h-103v103h103v-103z" />
    <glyph glyph-name="less" unicode="&#x3c;" horiz-adv-x="499" 
d="M453 443l-335 -136l335 -137v-75l-407 171v82l407 170v-75z" />
    <glyph glyph-name="equal" unicode="=" horiz-adv-x="551" 
d="M503 353h-455v77h455v-77zM503 144h-455v77h455v-77z" />
    <glyph glyph-name="greater" unicode="&#x3e;" horiz-adv-x="499" 
d="M46 518l407 -170v-82l-407 -171v75l335 137l-335 136v75z" />
    <glyph glyph-name="question" unicode="?" horiz-adv-x="522" 
d="M456 522q0 -49 -23.5 -91.5t-68.5 -82.5q-18 -16 -30 -28.5t-19 -25.5t-10 -27t-3 -32v-23h-82v24q0 62 13 89q11 27 34 47t46.5 40.5t41 46t17.5 63.5q0 54 -31 84t-86 30q-61 0 -87.5 -33.5t-28.5 -95.5h-85v11q0 49 15.5 84.5t42.5 58t63.5 33t79.5 10.5
q44 0 81 -12.5t63.5 -36t41.5 -57t15 -76.5zM314 0h-103v103h103v-103z" />
    <glyph glyph-name="at" unicode="@" horiz-adv-x="825" 
d="M564 234q0 -26 18 -47.5t41 -21.5q48 0 72 37.5t24 120.5q0 68 -22 125t-61.5 98.5t-94.5 65t-121 23.5q-69 0 -127.5 -26.5t-100.5 -71.5t-65.5 -104.5t-23.5 -126.5q0 -77 25.5 -136t68.5 -99t100.5 -61t122.5 -21q79 0 150 42l29 -52q-89 -49 -181 -49
q-84 0 -153.5 28t-119 77.5t-76.5 118.5t-27 152t30 154t81.5 122.5t120.5 81t146 29.5q90 0 157 -30.5t111.5 -81.5t67 -118t22.5 -140q0 -100 -40.5 -157.5t-118.5 -59.5q-26 0 -54 15t-43 49q-6 -14 -21 -26.5t-34 -23t-40.5 -16.5t-41.5 -6q-28 0 -55 6t-48.5 20
t-34.5 36.5t-13 55.5q0 30 13.5 53t35 38.5t48 24t52.5 9.5l123 4v30q0 38 -26.5 59.5t-63.5 21.5q-39 0 -62 -15.5t-31 -50.5h-71q5 37 19.5 61t36 38t49 19.5t59.5 5.5q41 0 70.5 -11.5t48 -32.5t27.5 -49.5t9 -62.5q0 -3 -0.5 -7t-1 -16t-2 -35.5t-3.5 -65.5zM506 263v24
l-119 -7q-44 -2 -62.5 -15.5t-18.5 -48.5q0 -29 20 -45.5t62 -16.5q54 0 86 30t32 79z" />
    <glyph glyph-name="A" unicode="A" horiz-adv-x="606" 
d="M526 0l-69 182h-311l-68 -182h-85l270 693h79l272 -693h-88zM302 594l-128 -341h256z" />
    <glyph glyph-name="B" unicode="B" horiz-adv-x="626" 
d="M336 617h-175v-231h175q70 0 104.5 26t34.5 89q0 58 -36.5 87t-102.5 29zM356 311h-195v-236h195q69 0 104.5 27t35.5 91q0 57 -38.5 87.5t-101.5 30.5zM581 193q0 -101 -59 -147t-179 -46h-265v693h234q123 0 185 -45t62 -147q0 -54 -22.5 -92.5t-56.5 -57.5
q43 -21 71 -58.5t30 -99.5z" />
    <glyph glyph-name="C" unicode="C" horiz-adv-x="623" 
d="M583 222q-4 -52 -21 -94.5t-48.5 -73t-79 -47.5t-112.5 -17q-80 0 -133.5 29.5t-86 79t-46 114t-13.5 135.5q0 69 12.5 133t44 113.5t85.5 79.5t137 30q64 0 111 -16.5t78.5 -46.5t48.5 -70.5t21 -88.5h-86q-3 28 -14.5 53.5t-32.5 45t-50.5 31t-68.5 11.5h-13
q-57 0 -93.5 -22.5t-58 -61t-30 -88t-8.5 -103.5q0 -51 7.5 -101t28.5 -89.5t58 -63.5t96 -24h12q43 0 74.5 13.5t52.5 35.5t31 49t10 54h87z" />
    <glyph glyph-name="D" unicode="D" horiz-adv-x="633" 
d="M290 618h-129v-543h135q62 0 102.5 18.5t64 54t33 85.5t9.5 113q0 138 -51.5 205t-163.5 67zM78 693h212q154 0 226 -87.5t72 -259.5q0 -77 -14.5 -140.5t-48.5 -109.5t-90 -71t-139 -25h-218v693z" />
    <glyph glyph-name="E" unicode="E" horiz-adv-x="557" 
d="M511 617h-350v-233h330v-74h-330v-234h359v-76h-442v693h433v-76z" />
    <glyph glyph-name="F" unicode="F" horiz-adv-x="523" 
d="M496 618h-334v-238h320v-73h-320v-307h-84v693h418v-75z" />
    <glyph glyph-name="G" unicode="G" horiz-adv-x="650" 
d="M497 482q-3 30 -15.5 55.5t-33.5 44.5t-51 30t-68 11h-13q-57 0 -93.5 -22.5t-58 -61t-30 -88t-8.5 -103.5q0 -51 7 -101t27 -89.5t56 -63.5t95 -24h12q52 0 88.5 17t59.5 45.5t33.5 67t10.5 80.5h-207v80h280v-360h-66v114q-25 -61 -75.5 -92.5t-129.5 -31.5
q-80 0 -132.5 29.5t-84 79t-44.5 114t-13 135.5q0 69 12.5 133t44 113.5t85.5 79.5t137 30q63 0 110 -16.5t79.5 -46.5t49.5 -70.5t20 -88.5h-84z" />
    <glyph glyph-name="H" unicode="H" horiz-adv-x="656" 
d="M496 693h82v-693h-82v321h-335v-321h-83v693h83v-299h335v299z" />
    <glyph glyph-name="I" unicode="I" horiz-adv-x="247" 
d="M165 693v-693h-83v693h83z" />
    <glyph glyph-name="J" unicode="J" horiz-adv-x="488" 
d="M328 260v433h82v-443q0 -50 -4.5 -97t-24 -83t-59 -58t-109.5 -22q-50 0 -85 15t-57.5 39.5t-34 56.5t-14.5 67h84q3 -24 10 -43t19 -31.5t31 -19.5t47 -7q37 0 59.5 11t35 34t16.5 60t4 88z" />
    <glyph glyph-name="K" unicode="K" horiz-adv-x="622" 
d="M78 0v693h83v-367l348 367h107l-272 -292l281 -401h-101l-234 342l-129 -130v-212h-83z" />
    <glyph glyph-name="L" unicode="L" horiz-adv-x="496" 
d="M78 693h82v-617h316v-76h-398v693z" />
    <glyph glyph-name="M" unicode="M" horiz-adv-x="814" 
d="M407 121l218 572h109v-693h-81v574l-217 -574h-58l-217 574v-574h-81v693h109z" />
    <glyph glyph-name="N" unicode="N" horiz-adv-x="683" 
d="M609 0h-104l-346 571v-571h-82v693h104l346 -571v571h82v-693z" />
    <glyph glyph-name="O" unicode="O" horiz-adv-x="636" 
d="M317 704q84 0 138.5 -30t86 -79.5t44 -113.5t12.5 -133q0 -71 -13.5 -135.5t-46 -114t-86.5 -79t-135 -29.5q-80 0 -133.5 29.5t-86 79t-46 114t-13.5 135.5q0 69 12.5 133t44 113.5t85.5 79.5t137 30zM323 70q60 0 97.5 24t58.5 63.5t28.5 89.5t7.5 101q0 54 -8.5 103.5
t-30 88t-58.5 61t-94 22.5h-13q-57 0 -93.5 -22.5t-58 -61t-30 -88t-8.5 -103.5q0 -51 7.5 -101t28.5 -89.5t58 -63.5t96 -24h12z" />
    <glyph glyph-name="P" unicode="P" horiz-adv-x="594" 
d="M159 286v-286h-81v693h232q54 0 99.5 -11.5t78.5 -36.5t51.5 -63.5t18.5 -92.5q0 -57 -18 -96t-49.5 -63t-76 -34t-96.5 -10h-159zM159 360h177q74 0 106 30t34 99q-2 66 -39 97t-101 31h-177v-257z" />
    <glyph glyph-name="Q" unicode="Q" horiz-adv-x="636" 
d="M458 23q-29 -16 -63.5 -24.5t-77.5 -8.5q-80 0 -133.5 29.5t-86 79t-46 114t-13.5 135.5q0 69 12.5 133t44 113.5t85.5 79.5t137 30q84 0 138.5 -30t86 -79.5t44 -113.5t12.5 -133q0 -82 -18.5 -155.5t-64.5 -124.5l52 -68l-58 -44zM323 70q50 0 85 18l-76 101l58 45
l74 -99q30 41 41 97t11 116q0 54 -8.5 103.5t-30 88t-59 61t-94.5 22.5h-13q-57 0 -93.5 -22.5t-58 -61t-30 -88t-8.5 -103.5q0 -51 7.5 -101t28.5 -89.5t58 -63.5t96 -24h12z" />
    <glyph glyph-name="R" unicode="R" horiz-adv-x="613" 
d="M493 0l-186 292h-146v-292h-83v693h230q53 0 98.5 -12t78.5 -37t52 -62.5t19 -89.5q0 -81 -39.5 -128.5t-119.5 -58.5l192 -305h-96zM161 618v-252h170q70 0 105 29.5t35 96.5q0 63 -40 94.5t-100 31.5h-170z" />
    <glyph glyph-name="S" unicode="S" horiz-adv-x="589" 
d="M126 207q5 -71 54.5 -106.5t124.5 -35.5q26 0 54.5 7.5t52.5 22.5t39.5 37.5t15.5 53.5q0 32 -11.5 53.5t-31 35.5t-45.5 23t-56 16l-88 21q-83 19 -128 62.5t-45 123.5q0 45 18 79t49 57t73.5 35t92.5 12q66 0 113 -15.5t77 -43t44 -64.5t14 -80h-84q-4 63 -45 97
t-114 34q-71 0 -114 -29.5t-43 -78.5q0 -48 35 -74t98 -40l88 -20q43 -9 78 -25t59.5 -40t37.5 -57t13 -78q0 -51 -20 -89t-53.5 -62.5t-78.5 -36.5t-95 -12q-59 0 -107 12.5t-82.5 38.5t-54.5 67.5t-24 98.5h89z" />
    <glyph glyph-name="T" unicode="T" horiz-adv-x="532" 
d="M531 693v-75h-224v-618h-81v618h-224v75h529z" />
    <glyph glyph-name="U" unicode="U" horiz-adv-x="671" 
d="M70 282v411h81v-399q0 -45 7.5 -86.5t28 -73t56.5 -50t93 -18.5q55 0 90.5 18t56.5 49.5t29 72.5t8 88v399h81v-411q0 -68 -14.5 -122t-46.5 -92t-82 -58.5t-120 -20.5q-80 0 -131.5 23t-81.5 62.5t-42 93t-13 114.5z" />
    <glyph glyph-name="V" unicode="V" horiz-adv-x="578" 
d="M291 103l203 590h86l-240 -693h-100l-241 693h89z" />
    <glyph glyph-name="W" unicode="W" horiz-adv-x="950" 
d="M689 98l159 595h90l-202 -693h-96l-164 563l-165 -563h-97l-202 693h94l156 -595l169 595h91z" />
    <glyph glyph-name="X" unicode="X" horiz-adv-x="607" 
d="M595 693l-241 -334l254 -359h-108l-199 290l-198 -290h-104l252 357l-238 336h108l185 -270l185 270h104z" />
    <glyph glyph-name="Y" unicode="Y" horiz-adv-x="584" 
d="M248 271l-246 422h95l194 -345l199 345h92l-252 -422v-271h-82v271z" />
    <glyph glyph-name="Z" unicode="Z" horiz-adv-x="552" 
d="M527 693v-88l-413 -529h417v-76h-509v86l414 531h-395v76h486z" />
    <glyph glyph-name="bracketleft" unicode="[" horiz-adv-x="241" 
d="M72 751h169v-57h-99v-803h99v-57h-169v917z" />
    <glyph glyph-name="backslash" unicode="\" horiz-adv-x="368" 
d="M53 759l333 -935h-71l-333 935h71z" />
    <glyph glyph-name="bracketright" unicode="]" horiz-adv-x="241" 
d="M169 -166h-169v57h99v803h-99v57h169v-917z" />
    <glyph glyph-name="asciicircum" unicode="^" horiz-adv-x="492" 
d="M442 475h-89l-107 188l-107 -188h-89l156 275h79z" />
    <glyph glyph-name="underscore" unicode="_" horiz-adv-x="508" 
d="M508 -163h-508v65h508v-65z" />
    <glyph glyph-name="grave" unicode="`" horiz-adv-x="210" 
d="M160 577l-49 -40l-134 152l65 52z" />
    <glyph glyph-name="a" unicode="a" horiz-adv-x="510" 
d="M378 196v29l-150 -5q-54 -2 -81 -22t-27 -62q0 -35 30.5 -57t78.5 -22q33 0 60.5 11t47 30t30.5 44t11 54zM387 0q-2 6 -3 16q-1 8 -1.5 21t-0.5 33q-20 -33 -60.5 -56.5t-96.5 -23.5q-34 0 -67 8t-59.5 25.5t-42.5 45t-16 67.5q0 37 16.5 64.5t43 45.5t59 27.5
t64.5 10.5l154 5v42q0 57 -30 80.5t-84 23.5q-56 0 -82 -21.5t-37 -64.5h-82q1 28 14 55.5t38 49.5t62 35t87 13q55 0 91.5 -14.5t59 -41t32 -64t9.5 -82.5v-231q0 -19 0.5 -32t1.5 -21q1 -10 3 -16h-73z" />
    <glyph glyph-name="b" unicode="b" horiz-adv-x="557" 
d="M142 0h-75v704h78v-274q23 32 59 51.5t85 19.5q60 0 103.5 -18.5t72 -52.5t42.5 -80.5t14 -103.5q0 -123 -59.5 -189.5t-169.5 -66.5q-24 0 -46.5 6.5t-42 18t-35.5 26t-26 30.5v-71zM289 436q-36 0 -63.5 -14.5t-45.5 -39.5t-27 -58t-10 -70v-23q0 -32 8.5 -63t26.5 -56
t45.5 -40t65.5 -15q40 0 68.5 15t47 41t27 60t8.5 72t-8.5 72.5t-27 61t-47 42t-68.5 15.5z" />
    <glyph glyph-name="c" unicode="c" horiz-adv-x="526" 
d="M401 331q-14 52 -48 78.5t-85 26.5q-40 0 -68.5 -15.5t-47 -42t-27 -61t-8.5 -72.5t8.5 -72t27 -60t47 -41t68.5 -15q64 0 96 33t41 89h85q-13 -94 -71 -142t-151 -48q-115 0 -173.5 67t-58.5 190q0 57 13.5 103.5t42 80.5t72.5 52.5t104 18.5q43 0 80 -12t65.5 -34
t47.5 -53.5t26 -70.5h-86z" />
    <glyph glyph-name="d" unicode="d" horiz-adv-x="557" 
d="M415 68q-10 -16 -26 -30.5t-35.5 -25t-42 -16.5t-46.5 -6q-110 0 -169.5 66.5t-59.5 189.5q0 57 13.5 103.5t42 80.5t72.5 52.5t104 18.5q49 0 85 -17.5t59 -49.5v270h78v-704h-75v68zM268 436q-40 0 -68.5 -15.5t-47 -42t-27 -61t-8.5 -72.5t8.5 -72t27 -60t47 -41
t68.5 -15q37 0 64.5 15t45.5 40t27 56t9 63v23q-1 37 -10 70t-27 58t-45.5 39.5t-63.5 14.5z" />
    <glyph glyph-name="e" unicode="e" horiz-adv-x="528" 
d="M117 291h290q-2 29 -12 55.5t-27.5 46t-42.5 31t-56 11.5t-58 -11.5t-47.5 -31t-32.5 -45.5t-14 -56zM492 163q-20 -95 -77 -134.5t-144 -39.5q-62 0 -106 19.5t-73 53.5t-42.5 81t-13.5 102q0 65 16.5 113.5t47.5 80t73.5 47t95.5 15.5q50 0 90.5 -16t69.5 -47.5t45 -79
t16 -111.5v-18h-373q1 -35 10.5 -66.5t28.5 -55.5t47.5 -38t67.5 -14q54 0 88 25t51 83h82z" />
    <glyph glyph-name="f" unicode="f" horiz-adv-x="330" 
d="M15 491h86v90q0 59 31 94t92 35q18 0 43 -1.5t43 -4.5v-63q-15 2 -36 2.5t-27 0.5q-66 0 -66 -80v-73h129v-65h-129v-426h-80v426h-86v65z" />
    <glyph glyph-name="g" unicode="g" horiz-adv-x="555" 
d="M412 -9v66q-18 -22 -39 -35.5t-40.5 -20.5t-36.5 -9t-29 -2q-59 0 -102.5 19t-72 53t-42.5 81.5t-14 103.5q0 121 60 187.5t171 66.5q48 0 85.5 -16.5t60.5 -50.5v57h78v-503q0 -47 -16 -83.5t-44.5 -62t-68 -39t-85.5 -13.5q-103 0 -157.5 35t-65.5 121h83
q8 -42 38.5 -65.5t90.5 -23.5q30 0 57 8.5t46.5 25.5t31 42t11.5 58zM269 436q-38 0 -66.5 -14t-47 -39.5t-28 -60t-9.5 -76.5t9.5 -76.5t28.5 -59.5t47.5 -39t66.5 -14q39 0 66.5 16.5t45 43t25.5 60.5t8 69t-8 69t-25.5 61t-45.5 43.5t-67 16.5z" />
    <glyph glyph-name="h" unicode="h" 
d="M143 693v-266q24 33 64.5 54t86.5 21q94 0 148 -41.5t54 -135.5v-325h-79v313q0 29 -10.5 51.5t-29 38.5t-43.5 24t-54 8q-61 0 -99 -36t-38 -99v-300h-79v693h79z" />
    <glyph glyph-name="i" unicode="i" horiz-adv-x="222" 
d="M72 0v491h79v-491h-79zM69 615v89h85v-89h-85z" />
    <glyph glyph-name="j" unicode="j" horiz-adv-x="208" 
d="M0 -203h22q62 0 92.5 34t30.5 94v566h-79v-552q0 -38 -15.5 -54t-41.5 -16h-9v-72zM63 615v89h85v-89h-85z" />
    <glyph glyph-name="k" unicode="k" horiz-adv-x="504" 
d="M232 217l-84 -84v-133h-79v693h79v-455l243 253h103l-207 -212l212 -279h-97z" />
    <glyph glyph-name="l" unicode="l" horiz-adv-x="216" 
d="M148 693v-693h-79v693h79z" />
    <glyph glyph-name="m" unicode="m" horiz-adv-x="838" 
d="M438 426q47 76 154 76q98 0 140 -43t42 -134v-325h-79v313q0 63 -29.5 92.5t-87.5 29.5t-88.5 -34t-30.5 -101v-300h-79v313q0 63 -29.5 92.5t-87.5 29.5q-120 0 -120 -135v-300h-79v491h76v-56q24 32 58 49.5t79 17.5q70 0 106.5 -20t54.5 -56z" />
    <glyph glyph-name="n" unicode="n" 
d="M140 491v-64q24 33 66 54t88 21q94 0 148 -41.5t54 -135.5v-325h-79v313q0 29 -10.5 51.5t-29 38.5t-43.5 24t-54 8q-61 0 -99 -36t-38 -99v-300h-79v491h76z" />
    <glyph glyph-name="o" unicode="o" horiz-adv-x="536" 
d="M268 501q60 0 103.5 -18.5t72 -52.5t42.5 -80.5t14 -103.5q0 -123 -58.5 -190t-173.5 -67t-173.5 67t-58.5 190q0 57 13.5 103.5t42 80.5t72.5 52.5t104 18.5zM268 436q-40 0 -68.5 -15.5t-47 -42t-27 -61t-8.5 -72.5t8.5 -72t27 -60t47 -41t68.5 -15t68.5 15t47 41
t27 60t8.5 72t-8.5 72.5t-27 61t-47 42t-68.5 15.5z" />
    <glyph glyph-name="p" unicode="p" horiz-adv-x="554" 
d="M139 -203h-75v694h78v-61q23 32 59 51.5t85 19.5q60 0 103.5 -18.5t72 -52.5t42.5 -80.5t14 -103.5q0 -123 -59.5 -189.5t-169.5 -66.5q-24 0 -46.5 6t-42 16.5t-35.5 25t-26 30.5v-271zM286 436q-36 0 -63.5 -14.5t-45.5 -39.5t-27 -58t-10 -70v-23q0 -32 8.5 -63
t26.5 -56t45.5 -40t65.5 -15q40 0 68.5 15t47 41t27 60t8.5 72t-8.5 72.5t-27 61t-47 42t-68.5 15.5z" />
    <glyph glyph-name="q" unicode="q" horiz-adv-x="557" 
d="M415 67q-10 -16 -26 -30t-35.5 -24.5t-42 -16.5t-46.5 -6q-110 0 -169.5 66.5t-59.5 189.5q0 57 13.5 103.5t42 80.5t72.5 52.5t104 18.5q49 0 85 -17.5t59 -49.5v57h78v-694h-75v270zM268 436q-40 0 -68.5 -15.5t-47 -42t-27 -61t-8.5 -72.5t8.5 -72t27 -60t47 -41
t68.5 -15q37 0 64.5 15t45.5 40t27 56t9 63v23q-1 37 -10 70t-27 58t-45.5 39.5t-63.5 14.5z" />
    <glyph glyph-name="r" unicode="r" horiz-adv-x="355" 
d="M282 432q-70 0 -106 -38t-36 -127v-267h-79v491h76v-69q18 32 57 56t88 24q14 0 28.5 -2t24.5 -4v-71q-11 4 -26 5.5t-27 1.5z" />
    <glyph glyph-name="s" unicode="s" horiz-adv-x="453" 
d="M329 357q-3 40 -32 59.5t-76 19.5q-20 0 -38 -4t-32 -12.5t-22.5 -21.5t-8.5 -31q0 -35 22.5 -51.5t55.5 -24.5t72.5 -13.5t72.5 -19.5t55.5 -42t22.5 -81q0 -41 -17.5 -69t-45.5 -45t-61.5 -24.5t-66.5 -7.5q-44 0 -80 10t-62.5 29t-41 47t-14.5 63h80q10 -84 118 -84
q19 0 39 3.5t36.5 12.5t27 25t10.5 41q0 33 -22 48t-55.5 22.5t-72.5 13t-72.5 19.5t-55.5 40.5t-22 77.5q0 38 14.5 65t39 44.5t57 26t68.5 8.5q40 0 73.5 -10t57.5 -28.5t37.5 -45t13.5 -60.5h-75z" />
    <glyph glyph-name="t" unicode="t" horiz-adv-x="312" 
d="M92 426h-77v65h77v144h79v-144h121v-65h-121v-296q0 -36 15 -53t51 -17q8 0 17.5 0.5t17.5 1.5q10 1 19 3v-65q-8 -2 -19 -3t-21.5 -2t-20 -1h-15.5q-62 0 -92.5 35t-30.5 94v303z" />
    <glyph glyph-name="u" unicode="u" 
d="M420 0v67q-24 -33 -66 -55.5t-88 -22.5q-94 0 -148 41.5t-54 135.5v325h79v-313q0 -29 10.5 -51.5t29 -38.5t43.5 -24t54 -8q61 0 99 36t38 99v300h79v-491h-76z" />
    <glyph glyph-name="v" unicode="v" horiz-adv-x="502" 
d="M250 94l155 397h83l-198 -491h-82l-194 491h83z" />
    <glyph glyph-name="w" unicode="w" horiz-adv-x="775" 
d="M219 105l130 386h77l130 -386l117 386h83l-158 -491h-81l-130 389l-129 -389h-81l-158 491h83z" />
    <glyph glyph-name="x" unicode="x" horiz-adv-x="492" 
d="M383 0l-138 188l-135 -188h-99l190 255l-179 236h99l128 -173l123 173h99l-179 -236l189 -255h-98z" />
    <glyph glyph-name="y" unicode="y" horiz-adv-x="496" 
d="M10 491h83l153 -398l156 398h84l-237 -572q-9 -23 -20 -43t-25.5 -35t-33 -23.5t-43.5 -8.5q-22 0 -37.5 2.5t-29.5 7.5v65q6 -2 13 -3q6 -1 14.5 -1.5t19.5 -0.5q25 0 40.5 12t26 30t17 39t13.5 39z" />
    <glyph glyph-name="z" unicode="z" horiz-adv-x="456" 
d="M428 428l-303 -359h305v-69h-404v63l303 359h-286v69h385v-63z" />
    <glyph glyph-name="braceleft" unicode="{" horiz-adv-x="340" 
d="M48 327h31q45 0 56.5 21t11.5 60v218q0 66 29.5 95.5t93.5 29.5h46v-57h-30q-40 0 -54.5 -18.5t-14.5 -54.5v-230q0 -32 -11.5 -57t-47.5 -42q36 -17 47.5 -42t11.5 -56v-230q0 -36 14.5 -54.5t54.5 -18.5h30v-57h-46q-64 0 -93.5 29.5t-29.5 95.5v218q0 39 -11.5 60
t-56.5 21h-31v69z" />
    <glyph glyph-name="bar" unicode="|" horiz-adv-x="219" 
d="M77 -166v917h65v-917h-65z" />
    <glyph glyph-name="braceright" unicode="}" horiz-adv-x="340" 
d="M292 258h-31q-45 0 -56.5 -21t-11.5 -60v-218q0 -66 -29.5 -95.5t-93.5 -29.5h-46v57h30q40 0 54.5 18.5t14.5 54.5v230q0 31 11.5 56t47.5 42q-36 17 -47.5 42t-11.5 57v230q0 36 -14.5 54.5t-54.5 18.5h-30v57h46q64 0 93.5 -29.5t29.5 -95.5v-218q0 -39 11.5 -60
t56.5 -21h31v-69z" />
    <glyph glyph-name="asciitilde" unicode="~" horiz-adv-x="651" 
d="M530 359l52 -51q-35 -34 -68.5 -53t-83.5 -19q-30 0 -57 8.5t-52.5 19t-50.5 19.5t-51 9q-32 0 -56 -14t-44 -34l-50 52q34 30 70 51t81 21q31 0 59.5 -8.5t54.5 -19t49.5 -19t46.5 -8.5q34 0 57.5 14t42.5 32z" />
    <glyph glyph-name="exclamdown" unicode="&#xa1;" horiz-adv-x="242" 
d="M151 279l16 -305v-176h-92v176l16 305h60zM168 393h-94v98h94v-98z" />
    <glyph glyph-name="cent" unicode="&#xa2;" horiz-adv-x="539" 
d="M411 426q-23 85 -100 101v-373q48 8 72 40t32 80h85q-12 -85 -61.5 -133t-127.5 -56v-95h-65v95q-100 10 -150 76t-50 180q0 52 12 96.5t36.5 77.5t62 53.5t89.5 25.5v111h65v-111q73 -9 123 -53t63 -115h-86zM127 340q0 -34 7 -65t21 -55.5t36.5 -41.5t54.5 -23v373
q-32 -6 -54.5 -23.5t-36.5 -42.5t-21 -56.5t-7 -65.5z" />
    <glyph glyph-name="sterling" unicode="&#xa3;" horiz-adv-x="538" 
d="M430 543q-5 38 -36 61.5t-75 23.5q-54 0 -84.5 -32.5t-30.5 -92.5v-116h140v-67h-140v-242h158q34 0 55.5 17t26.5 52l82 -14q-8 -61 -45.5 -97t-107.5 -36h-326v78h75v242h-57v67h57v113q0 45 14.5 82.5t40.5 64.5t62 42t80 15t79.5 -13.5t60.5 -36t38.5 -51.5t13.5 -60
h-81z" />
    <glyph glyph-name="currency" unicode="&#xa4;" horiz-adv-x="546" 
d="M104 205q-35 52 -35 120q0 66 34 119l-78 79l53 53l77 -77q25 17 54.5 27t64.5 10q34 0 63.5 -9.5t54.5 -26.5l76 76l53 -53l-77 -77q17 -26 26 -56.5t9 -64.5t-9.5 -65t-26.5 -57l78 -77l-53 -53l-77 77q-25 -17 -54 -26.5t-63 -9.5q-35 0 -64.5 9.5t-54.5 26.5l-77 -77
l-53 53zM144 325q0 -29 9.5 -55t27 -45.5t41 -30.5t52.5 -11q28 0 52 11t41.5 30.5t27 45.5t9.5 55t-9.5 55t-27 45.5t-41.5 30.5t-52 11q-29 0 -52.5 -11t-41 -30.5t-27 -45.5t-9.5 -55z" />
    <glyph glyph-name="yen" unicode="&#xa5;" horiz-adv-x="580" 
d="M73 202h173v69l-3 4h-170v73h128l-201 345h95l194 -345l199 345h92l-206 -345h132v-73h-176l-2 -4v-69h178v-73h-178v-129h-82v129h-173v73z" />
    <glyph glyph-name="brokenbar" unicode="&#xa6;" horiz-adv-x="219" 
d="M77 348v403h65v-403h-65zM77 -166v403h65v-403h-65z" />
    <glyph glyph-name="section" unicode="&#xa7;" horiz-adv-x="475" 
d="M35 379q0 38 22 68.5t51 50.5q-23 22 -34.5 47t-11.5 57q0 35 14.5 60.5t38.5 41.5t55.5 23.5t64.5 7.5q81 0 121.5 -39t40.5 -106h-69q0 38 -27.5 58t-65.5 20q-97 0 -97 -66q0 -31 22 -52t55 -38t71.5 -33t71.5 -37.5t55 -51.5t22 -76q0 -36 -19 -66t-49 -50
q23 -20 33 -46t10 -58q0 -35 -16 -61.5t-41 -44t-56 -26t-62 -8.5q-41 0 -76 10t-60.5 29.5t-40 49.5t-14.5 71h76q0 -17 6.5 -34.5t20 -31t35.5 -22t53 -8.5q18 0 35.5 4.5t31.5 13.5t22.5 23.5t8.5 34.5q0 31 -22 53t-55 40t-72 35.5t-72 38.5t-55 49.5t-22 68.5zM158 466
q-26 -14 -37.5 -32.5t-11.5 -46.5q0 -26 23.5 -47.5t56.5 -40.5t69 -35.5t61 -32.5q42 31 42 83q0 18 -10 33t-31 30t-54.5 33t-80.5 42z" />
    <glyph glyph-name="dieresis" unicode="&#xa8;" horiz-adv-x="183" 
d="M48 526h-76v87h76v-87zM211 526h-77v87h77v-87z" />
    <glyph glyph-name="copyright" unicode="&#xa9;" horiz-adv-x="731" 
d="M707 346q-2 -78 -26 -143.5t-67.5 -112.5t-105.5 -73.5t-140 -26.5t-141.5 28t-108.5 76.5t-69.5 113.5t-24.5 138q0 79 25.5 144.5t71 112.5t109 73t138.5 26q80 0 143 -27t106.5 -74.5t66.5 -113t23 -141.5zM368 635q-63 -2 -113 -25t-85.5 -62t-54 -91t-18.5 -111
q0 -62 20 -114.5t56 -91.5t85.5 -61t109.5 -22q62 0 111.5 24t84 64t53 92.5t18.5 108.5q0 60 -19.5 113t-54.5 92t-84 61.5t-109 22.5zM543 298q-11 -70 -54 -107.5t-120 -37.5q-88 0 -132.5 50.5t-44.5 143.5q0 43 10.5 78t32 60.5t55 39.5t79.5 14q74 0 116.5 -33
t53.5 -93h-76q-8 27 -32 44.5t-62 17.5q-28 0 -47.5 -10.5t-31.5 -28t-17.5 -41t-5.5 -49.5t5.5 -48.5t17.5 -39.5t31.5 -27t47.5 -10q44 0 70 21t31 56h73z" />
    <glyph glyph-name="ordfeminine" unicode="&#xaa;" horiz-adv-x="280" 
d="M193 474v12h-48q-22 0 -40.5 -6t-18.5 -28q0 -14 9 -23.5t34 -9.5q37 0 50.5 10.5t13.5 44.5zM213 369q-2 3 -3 7t-1.5 11t-0.5 18q-11 -18 -31.5 -28.5t-49.5 -10.5q-45 0 -73.5 19.5t-28.5 61.5q0 24 9 39t23.5 24.5t32.5 13.5t36 5h65q0 28 -7.5 47t-35.5 19
q-14 0 -27 -5t-18 -29h-66q1 16 8 31t21 27t34.5 19.5t47.5 7.5q30 0 50 -8t32 -22.5t16.5 -35t4.5 -45.5v-129q0 -10 0.5 -16.5t1.5 -11.5t2 -9h-42z" />
    <glyph glyph-name="guillemotleft" unicode="&#xab;" horiz-adv-x="592" 
d="M303 471l-160 -225l160 -224h-93l-160 224l160 225h93zM527 471l-160 -225l160 -224h-93l-160 224l160 225h93z" />
    <glyph glyph-name="logicalnot" unicode="&#xac;" horiz-adv-x="499" 
d="M48 358h403v-266h-77v192h-326v74z" />
    <glyph glyph-name="registered" unicode="&#xae;" horiz-adv-x="555" 
d="M322 396l-64 101h-30v-101h-45v259h87q40 0 67.5 -18t27.5 -62q0 -29 -15.5 -48.5t-45.5 -24.5l68 -106h-50zM228 614v-77h50q23 0 33 10.5t10 31.5q0 16 -10 25.5t-33 9.5h-50zM109 525q0 -38 10.5 -71.5t31.5 -58t52.5 -39t73.5 -14.5t74 14.5t53 39t31.5 58t10.5 71.5
t-10.5 71.5t-31.5 58t-53 39t-74 14.5t-73.5 -14.5t-52.5 -39t-31.5 -58t-10.5 -71.5zM64 525q0 47 13.5 88.5t40.5 72t66.5 48.5t92.5 18t93 -18t67 -48.5t40.5 -72t13.5 -88.5t-13.5 -88.5t-40.5 -72t-67 -48t-93 -17.5t-92.5 17.5t-66.5 48t-40.5 72t-13.5 88.5z" />
    <glyph glyph-name="degree" unicode="&#xb0;" horiz-adv-x="398" 
d="M120 536q0 -35 23 -58.5t56 -23.5t56 23.5t23 58.5t-23 58.5t-56 23.5t-56 -23t-23 -59zM56 536q0 33 11 60t30.5 46.5t45.5 30.5t56 11t56 -11t45.5 -31t30.5 -47t11 -59t-11 -59t-30.5 -47t-45.5 -31t-56 -11t-56 11t-45.5 31t-30.5 47t-11 59z" />
    <glyph glyph-name="plusminus" unicode="&#xb1;" horiz-adv-x="530" 
d="M472 0h-411v78h411v-78zM482 297h-180v-160h-74v160h-180v74h180v162h74v-162h180v-74z" />
    <glyph glyph-name="twosuperior" unicode="&#xb2;" horiz-adv-x="284" 
d="M14 393q0 40 14 66.5t35 45.5t46 33t46 28.5t35 32t14 43.5q0 56 -58 56q-36 0 -49.5 -15.5t-14.5 -43.5h-63q1 54 34 85.5t93 31.5q57 0 89.5 -29.5t32.5 -79.5q0 -38 -14 -63.5t-34.5 -43.5t-44.5 -31.5t-44.5 -27.5t-34.5 -31t-14 -42h192v-59h-260v44z" />
    <glyph glyph-name="threesuperior" unicode="&#xb3;" horiz-adv-x="285" 
d="M121 531v50h17q20 0 32.5 5t19.5 14t9.5 21t2.5 25q0 9 -3 18.5t-9.5 17.5t-17 13.5t-26.5 5.5q-32 0 -48 -13.5t-18 -45.5h-64q2 55 34.5 86t92.5 31q61 0 92.5 -29.5t31.5 -83.5q0 -65 -45 -87q56 -23 56 -96q0 -23 -8.5 -44.5t-25.5 -38t-42.5 -26.5t-58.5 -10
q-63 0 -100 33t-39 87h60q2 -35 25 -50t54 -15q37 0 54.5 17.5t17.5 45.5q0 32 -16 50.5t-61 18.5h-17z" />
    <glyph glyph-name="acute" unicode="&#xb4;" horiz-adv-x="245" 
d="M90 737l-40 49l155 138l52 -65z" />
    <glyph glyph-name="mu" unicode="&#xb5;" 
d="M420 0v67q-24 -33 -66 -55.5t-88 -22.5q-40 0 -72 12t-54 37v-241h-76v694h79v-313q0 -29 10.5 -51.5t29 -38.5t43.5 -24t54 -8q61 0 99 36t38 99v300h79v-491h-76z" />
    <glyph glyph-name="paragraph" unicode="&#xb6;" horiz-adv-x="613" 
d="M213 693h315v-63h-77v-762h-64v759h-111v-759h-63v454q-40 1 -71 16t-52 40t-31.5 57.5t-10.5 69.5q0 38 11.5 72.5t32.5 60t51.5 40.5t69.5 15z" />
    <glyph glyph-name="cedilla" unicode="&#xb8;" horiz-adv-x="166" 
d="M94 50l-24 -53q7 3 25 3q31 0 50.5 -22t19.5 -54q0 -42 -23 -62t-65 -20q-29 0 -46.5 13.5t-25.5 30.5l32 21q15 -25 40 -25q17 0 28 11t11 31q0 18 -11 28.5t-28 10.5q-22 0 -34 -9l-32 23l32 73h51z" />
    <glyph glyph-name="onesuperior" unicode="&#xb9;" horiz-adv-x="293" 
d="M209 749v-400h-66v291h-77v42q33 0 57 17t24 43v7h62z" />
    <glyph glyph-name="ordmasculine" unicode="&#xba;" horiz-adv-x="299" 
d="M149 693q65 0 95 -38t30 -101q0 -67 -31.5 -103t-93.5 -36q-61 0 -92.5 36t-31.5 103q0 63 30 101t94 38zM149 642q-37 0 -53 -26.5t-16 -61.5t16 -61t53 -26t53.5 26t16.5 61t-16.5 61.5t-53.5 26.5z" />
    <glyph glyph-name="guillemotright" unicode="&#xbb;" horiz-adv-x="592" 
d="M382 471l160 -225l-160 -224h-93l160 224l-160 225h93zM158 471l160 -225l-160 -224h-93l160 224l-160 225h93z" />
    <glyph glyph-name="onequarter" unicode="&#xbc;" horiz-adv-x="732" 
d="M179 688v-403h-66v294h-77v42q33 0 57 17t24 43v7h62zM681 72h-41v-72h-63v72h-191v39l175 292h79v-275h41v-56zM577 128v201l-119 -201h119zM574 704l-421 -748l-60 33l420 746z" />
    <glyph glyph-name="onehalf" unicode="&#xbd;" horiz-adv-x="713" 
d="M179 688v-403h-66v294h-77v42q33 0 57 17t24 43v7h62zM422 44q0 40 14 66.5t35 45.5t46 33t46 28.5t35 32t14 43.5q0 56 -58 56q-36 0 -49.5 -15.5t-14.5 -43.5h-63q1 54 34 85.5t93 31.5q57 0 89.5 -29.5t32.5 -79.5q0 -38 -14 -63.5t-34.5 -43.5t-44.5 -31.5
t-44.5 -27.5t-34.5 -31t-14 -42h192v-59h-260v44zM574 704l-421 -748l-60 33l420 746z" />
    <glyph glyph-name="threequarters" unicode="&#xbe;" horiz-adv-x="820" 
d="M786 72h-41v-72h-63v72h-191v39l175 292h79v-275h41v-56zM682 128v201l-119 -201h119zM166 463v50h17q20 0 32.5 5t19.5 14t9.5 21t2.5 25q0 9 -3 18.5t-9.5 17.5t-17 13.5t-26.5 5.5q-32 0 -48 -13.5t-18 -45.5h-64q2 55 34.5 86t92.5 31q61 0 92.5 -29.5t31.5 -83.5
q0 -65 -45 -87q56 -23 56 -96q0 -23 -8.5 -44.5t-25.5 -38t-42.5 -26.5t-58.5 -10q-63 0 -100 33t-39 87h60q2 -35 25 -50t54 -15q37 0 54.5 17.5t17.5 45.5q0 32 -16 50.5t-61 18.5h-17zM681 704l-421 -748l-60 33l420 746z" />
    <glyph glyph-name="questiondown" unicode="&#xbf;" horiz-adv-x="522" 
d="M68 -31q0 49 23.5 91.5t68.5 82.5q18 16 30 28.5t19 25.5t10 27t3 32v23h82v-24q0 -62 -13 -89q-11 -27 -34 -47t-46.5 -40.5t-41 -46t-17.5 -63.5q0 -54 31 -84t86 -30q61 0 87.5 33.5t28.5 95.5h85v-11q0 -49 -15.5 -84.5t-42.5 -58t-63.5 -33t-79.5 -10.5
q-44 0 -81 12.5t-63.5 36t-41.5 57t-15 76.5zM210 491h103v-103h-103v103z" />
    <glyph glyph-name="Agrave" unicode="&#xc0;" horiz-adv-x="606" 
d="M377 786l-40 -48l-160 125l55 62zM526 0l-69 182h-311l-68 -182h-85l270 693h79l272 -693h-88zM302 594l-128 -341h256z" />
    <glyph glyph-name="Aacute" unicode="&#xc1;" horiz-adv-x="606" 
d="M270 735l-41 49l145 138l55 -62zM526 0l-69 182h-311l-68 -182h-85l270 693h79l272 -693h-88zM302 594l-128 -341h256z" />
    <glyph glyph-name="Acircumflex" unicode="&#xc2;" horiz-adv-x="606" 
d="M405 735l-103 93l-101 -93l-42 46l111 103h65l111 -103zM526 0l-69 182h-311l-68 -182h-85l270 693h79l272 -693h-88zM302 594l-128 -341h256z" />
    <glyph glyph-name="Atilde" unicode="&#xc3;" horiz-adv-x="606" 
d="M526 0l-69 182h-311l-68 -182h-85l270 693h79l272 -693h-88zM302 594l-128 -341h256zM186 762h-52q4 25 14 42t24 27t31 14.5t35 4.5q16 0 33.5 -6.5t34.5 -14t33 -13.5t29 -6q14 0 26.5 4.5t23.5 24.5h55q-3 -23 -13 -40t-24.5 -28t-32.5 -16t-36 -5q-17 0 -33.5 6.5
t-32.5 14.5t-32 14.5t-32 6.5q-14 0 -27 -4.5t-24 -25.5z" />
    <glyph glyph-name="Adieresis" unicode="&#xc4;" horiz-adv-x="606" 
d="M232 760h-86v94h86v-94zM440 760h-86v94h86v-94zM526 0l-69 182h-311l-68 -182h-85l270 693h79l272 -693h-88zM302 594l-128 -341h256z" />
    <glyph glyph-name="Aring" unicode="&#xc5;" horiz-adv-x="606" 
d="M526 0l-69 182h-311l-68 -182h-85l255 656q-26 16 -44 42.5t-18 57.5q0 25 10 46.5t26.5 37.5t38 25.5t44.5 9.5q24 0 45.5 -10t37.5 -26.5t25.5 -38t9.5 -44.5q0 -31 -19 -58t-47 -42h-1l258 -656h-88zM302 594l-128 -341h256zM239 756q0 -26 18 -43.5t43 -19.5h10
q26 2 43 21t17 42q0 26 -18.5 46t-46.5 20q-30 0 -48 -20.5t-18 -45.5z" />
    <glyph glyph-name="AE" unicode="&#xc6;" horiz-adv-x="840" 
d="M800 617h-330v-233h310v-74h-310v-234h339v-76h-422v182h-226l-83 -182h-85l320 693h487v-76zM189 253h198v364h-30z" />
    <glyph glyph-name="Ccedilla" unicode="&#xc7;" horiz-adv-x="623" 
d="M583 222q-4 -48 -18.5 -88.5t-42.5 -70.5t-69 -48.5t-97 -22.5l-14 -40q7 3 25 3q31 0 50.5 -22t19.5 -54q0 -42 -23 -62t-65 -20q-29 0 -46.5 13.5t-25.5 30.5l32 21q15 -25 40 -25q17 0 28 11t11 31q0 18 -11 28.5t-28 10.5q-22 0 -34 -9l-32 23l21 59q-75 3 -125 33.5
t-80 79.5t-43 112t-13 132t12.5 133t44 113.5t85.5 79.5t137 30q64 0 111 -16.5t78.5 -46.5t48.5 -70.5t21 -88.5h-86q-3 28 -14.5 53.5t-32.5 45t-50.5 31t-68.5 11.5h-13q-57 0 -93.5 -22.5t-58 -61t-30 -88t-8.5 -103.5q0 -51 7.5 -101t28.5 -89.5t58 -63.5t96 -24h12
q43 0 74.5 13.5t52.5 35.5t31 49t10 54h87z" />
    <glyph glyph-name="Egrave" unicode="&#xc8;" horiz-adv-x="557" 
d="M374 786l-41 -48l-160 125l55 62zM511 617h-350v-233h330v-74h-330v-234h359v-76h-442v693h433v-76z" />
    <glyph glyph-name="Eacute" unicode="&#xc9;" horiz-adv-x="557" 
d="M511 617h-350v-233h330v-74h-330v-234h359v-76h-442v693h433v-76zM249 737l-40 49l155 138l52 -65z" />
    <glyph glyph-name="Ecircumflex" unicode="&#xca;" horiz-adv-x="557" 
d="M401 735l-102 93l-102 -93l-41 46l111 103h64l112 -103zM511 617h-350v-233h330v-74h-330v-234h359v-76h-442v693h433v-76z" />
    <glyph glyph-name="Edieresis" unicode="&#xcb;" horiz-adv-x="557" 
d="M239 761h-84v93h84v-93zM445 761h-84v93h84v-93zM511 617h-350v-233h330v-74h-330v-234h359v-76h-442v693h433v-76z" />
    <glyph glyph-name="Igrave" unicode="&#xcc;" horiz-adv-x="264" 
d="M196 784l-41 -49l-159 125l55 62zM166 693v-693h-83v693h83z" />
    <glyph glyph-name="Iacute" unicode="&#xcd;" horiz-adv-x="264" 
d="M110 735l-41 49l146 138l54 -62zM185 693v-693h-83v693h83z" />
    <glyph glyph-name="Icircumflex" unicode="&#xce;" horiz-adv-x="246" 
d="M225 738l-102 92l-102 -92l-41 45l112 103h65l110 -103zM164 693v-693h-83v693h83z" />
    <glyph glyph-name="Idieresis" unicode="&#xcf;" horiz-adv-x="271" 
d="M75 763h-84v94h84v-94zM281 763h-83v94h83v-94zM177 693v-693h-83v693h83z" />
    <glyph glyph-name="Eth" unicode="&#xd0;" horiz-adv-x="651" 
d="M96 325h-56v68h56v300h212q154 0 226 -87.5t72 -259.5q0 -77 -14.5 -140.5t-48.5 -109.5t-90 -71t-139 -25h-218v325zM308 618h-129v-225h163v-68h-163v-250h135q62 0 102.5 18.5t64 54t33 85.5t9.5 113q0 138 -51.5 205t-163.5 67z" />
    <glyph glyph-name="Ntilde" unicode="&#xd1;" horiz-adv-x="687" 
d="M235 763h-56q5 25 16 41.5t25.5 27t31 15t32.5 4.5q18 0 34 -6.5t31.5 -14t32 -13.5t36.5 -6q11 0 21.5 5t20.5 24h58q-3 -22 -13.5 -38t-25 -26.5t-32.5 -15.5t-36 -5q-20 0 -36.5 6t-32 13t-30 13t-29.5 6q-14 0 -25.5 -5t-22.5 -25zM609 0h-104l-346 571v-571h-82v693
h104l346 -571v571h82v-693z" />
    <glyph glyph-name="Ograve" unicode="&#xd2;" horiz-adv-x="636" 
d="M387 786l-41 -48l-159 125l54 62zM317 704q-83 0 -137 -30t-85.5 -79.5t-44 -113.5t-12.5 -133q0 -71 13.5 -135.5t46 -114t86 -79t133.5 -29.5q81 0 135 29.5t86.5 79t46 114t13.5 135.5q0 69 -12.5 133t-44 113.5t-86 79.5t-138.5 30zM323 70h-12q-59 0 -96 24
t-58 63.5t-28.5 89.5t-7.5 101q0 54 8.5 103.5t30 88t58 61t93.5 22.5h13q57 0 94 -22.5t58.5 -61t30 -88t8.5 -103.5q0 -51 -7.5 -101t-28.5 -89.5t-58.5 -63.5t-97.5 -24z" />
    <glyph glyph-name="Oacute" unicode="&#xd3;" horiz-adv-x="636" 
d="M275 738l-41 48l146 139l55 -62zM317 704q-83 0 -137 -30t-85.5 -79.5t-44 -113.5t-12.5 -133q0 -71 13.5 -135.5t46 -114t86 -79t133.5 -29.5q81 0 135 29.5t86.5 79t46 114t13.5 135.5q0 69 -12.5 133t-44 113.5t-86 79.5t-138.5 30zM323 70h-12q-59 0 -96 24t-58 63.5
t-28.5 89.5t-7.5 101q0 54 8.5 103.5t30 88t58 61t93.5 22.5h13q57 0 94 -22.5t58.5 -61t30 -88t8.5 -103.5q0 -51 -7.5 -101t-28.5 -89.5t-58.5 -63.5t-97.5 -24z" />
    <glyph glyph-name="Ocircumflex" unicode="&#xd4;" horiz-adv-x="636" 
d="M417 738l-102 92l-102 -92l-41 45l111 103h66l110 -103zM317 704q-83 0 -137 -30t-85.5 -79.5t-44 -113.5t-12.5 -133q0 -71 13.5 -135.5t46 -114t86 -79t133.5 -29.5q81 0 135 29.5t86.5 79t46 114t13.5 135.5q0 69 -12.5 133t-44 113.5t-86 79.5t-138.5 30zM323 70h-12
q-59 0 -96 24t-58 63.5t-28.5 89.5t-7.5 101q0 54 8.5 103.5t30 88t58 61t93.5 22.5h13q57 0 94 -22.5t58.5 -61t30 -88t8.5 -103.5q0 -51 -7.5 -101t-28.5 -89.5t-58.5 -63.5t-97.5 -24z" />
    <glyph glyph-name="Otilde" unicode="&#xd5;" horiz-adv-x="636" 
d="M317 704q-83 0 -137 -30t-85.5 -79.5t-44 -113.5t-12.5 -133q0 -71 13.5 -135.5t46 -114t86 -79t133.5 -29.5q81 0 135 29.5t86.5 79t46 114t13.5 135.5q0 69 -12.5 133t-44 113.5t-86 79.5t-138.5 30zM323 70h-12q-59 0 -96 24t-58 63.5t-28.5 89.5t-7.5 101
q0 54 8.5 103.5t30 88t58 61t93.5 22.5h13q57 0 94 -22.5t58.5 -61t30 -88t8.5 -103.5q0 -51 -7.5 -101t-28.5 -89.5t-58.5 -63.5t-97.5 -24zM200 768h-52q4 25 14 42t24 27t31 14.5t35 4.5q16 0 33.5 -6.5t34.5 -14t33 -13.5t29 -6q14 0 26.5 4.5t23.5 24.5h55
q-3 -23 -13 -40t-24.5 -28t-32.5 -16t-36 -5q-17 0 -33.5 6.5t-32.5 14.5t-32 14.5t-32 6.5q-14 0 -27 -4.5t-24 -25.5z" />
    <glyph glyph-name="Odieresis" unicode="&#xd6;" horiz-adv-x="636" 
d="M259 757h-83v94h83v-94zM464 757h-82v94h82v-94zM317 704q-83 0 -137 -30t-85.5 -79.5t-44 -113.5t-12.5 -133q0 -71 13.5 -135.5t46 -114t86 -79t133.5 -29.5q81 0 135 29.5t86.5 79t46 114t13.5 135.5q0 69 -12.5 133t-44 113.5t-86 79.5t-138.5 30zM323 70h-12
q-59 0 -96 24t-58 63.5t-28.5 89.5t-7.5 101q0 54 8.5 103.5t30 88t58 61t93.5 22.5h13q57 0 94 -22.5t58.5 -61t30 -88t8.5 -103.5q0 -51 -7.5 -101t-28.5 -89.5t-58.5 -63.5t-97.5 -24z" />
    <glyph glyph-name="multiply" unicode="&#xd7;" horiz-adv-x="526" 
d="M456 435l-139 -138l139 -139l-55 -53l-138 138l-139 -138l-53 53l139 139l-139 138l54 54l139 -139l138 139z" />
    <glyph glyph-name="Oslash" unicode="&#xd8;" horiz-adv-x="634" 
d="M316 704q31 0 57 -4t49 -12l25 55h71l-38 -84q34 -24 56.5 -57.5t36 -74t19 -86.5t5.5 -93q0 -71 -13.5 -135.5t-46 -114t-86.5 -79t-135 -29.5q-36 0 -66.5 6.5t-56.5 17.5l-27 -60h-71l43 96q-28 25 -47.5 57.5t-31.5 71t-17 81.5t-5 88q0 69 12.5 133t44 113.5
t85.5 79.5t137 30zM322 70q60 0 97.5 24t58.5 63.5t28.5 89.5t7.5 101q0 70 -14.5 131.5t-54.5 99.5l-219 -491q34 -18 84 -18h12zM120 348q0 -61 11 -119t43 -99l215 483q-14 5 -30.5 7.5t-35.5 2.5h-13q-57 0 -93.5 -22.5t-58 -61t-30 -88t-8.5 -103.5z" />
    <glyph glyph-name="Ugrave" unicode="&#xd9;" horiz-adv-x="679" 
d="M417 785l-40 -49l-159 125l54 62zM74 282v411h81v-399q0 -45 7.5 -86.5t28 -73t56.5 -50t93 -18.5q55 0 90.5 18t56.5 49.5t29 72.5t8 88v399h81v-411q0 -68 -14.5 -122t-46.5 -92t-82 -58.5t-120 -20.5q-80 0 -131.5 23t-81.5 62.5t-42 93t-13 114.5z" />
    <glyph glyph-name="Uacute" unicode="&#xda;" horiz-adv-x="679" 
d="M299 736l-40 49l145 138l55 -62zM74 282v411h81v-399q0 -45 7.5 -86.5t28 -73t56.5 -50t93 -18.5q55 0 90.5 18t56.5 49.5t29 72.5t8 88v399h81v-411q0 -68 -14.5 -122t-46.5 -92t-82 -58.5t-120 -20.5q-80 0 -131.5 23t-81.5 62.5t-42 93t-13 114.5z" />
    <glyph glyph-name="Ucircumflex" unicode="&#xdb;" horiz-adv-x="679" 
d="M439 736l-102 92l-102 -92l-41 46l111 102h66l110 -102zM74 282v411h81v-399q0 -45 7.5 -86.5t28 -73t56.5 -50t93 -18.5q55 0 90.5 18t56.5 49.5t29 72.5t8 88v399h81v-411q0 -68 -14.5 -122t-46.5 -92t-82 -58.5t-120 -20.5q-80 0 -131.5 23t-81.5 62.5t-42 93
t-13 114.5z" />
    <glyph glyph-name="Udieresis" unicode="&#xdc;" horiz-adv-x="679" 
d="M277 760h-86v94h86v-94zM485 760h-86v94h86v-94zM74 282v411h81v-399q0 -45 7.5 -86.5t28 -73t56.5 -50t93 -18.5q55 0 90.5 18t56.5 49.5t29 72.5t8 88v399h81v-411q0 -68 -14.5 -122t-46.5 -92t-82 -58.5t-120 -20.5q-80 0 -131.5 23t-81.5 62.5t-42 93t-13 114.5z" />
    <glyph glyph-name="Yacute" unicode="&#xdd;" horiz-adv-x="533" 
d="M223 280l-221 413h95l169 -336l174 336h91l-225 -413v-280h-83v280zM227 736l-41 49l146 138l54 -62z" />
    <glyph glyph-name="Thorn" unicode="&#xde;" horiz-adv-x="572" 
d="M286 164h-122v-164h-86v693h86v-123h122q54 0 99.5 -11.5t78.5 -36.5t51.5 -63t18.5 -92q0 -58 -20 -97t-53.5 -62.5t-78.5 -33.5t-96 -10zM164 243h146q34 2 60 9t43.5 21t26 37t8.5 57q0 31 -11 54t-30 38.5t-44 23.5t-53 8h-146v-248z" />
    <glyph glyph-name="germandbls" unicode="&#xdf;" horiz-adv-x="637" 
d="M64 430h65v74q0 102 49 152t160 50q50 0 87.5 -13t62 -36.5t36.5 -56t12 -72.5q0 -45 -21.5 -81t-66.5 -48q34 -6 59 -23.5t41.5 -42.5t25 -55t8.5 -61q0 -105 -54 -166.5t-155 -61.5q-15 0 -36.5 2t-50.5 9v67q20 -6 37 -7.5t33 -1.5q31 0 58.5 9t48 28t32 49.5
t11.5 72.5q0 73 -45 108.5t-123 35.5h-35v69h35q24 0 45.5 6.5t38 19t26 31t9.5 41.5q0 50 -26.5 79.5t-92.5 29.5q-39 0 -64 -10.5t-40 -28.5t-20.5 -43t-5.5 -54v-501h-79v361h-65v69z" />
    <glyph glyph-name="agrave" unicode="&#xe0;" horiz-adv-x="516" 
d="M338 577l-48 -40l-134 152l65 51zM374 196v29l-150 -5q-54 -2 -81 -22t-27 -62q0 -35 30.5 -57t78.5 -22q33 0 60.5 11t47 30t30.5 44t11 54zM383 0q-2 6 -3 16q-1 8 -1.5 21t-0.5 33q-20 -33 -60.5 -56.5t-96.5 -23.5q-34 0 -67 8t-59.5 25.5t-42.5 45t-16 67.5
q0 37 16.5 64.5t43 45.5t59 27.5t64.5 10.5l154 5v42q0 57 -30 80.5t-84 23.5q-56 0 -82 -21.5t-37 -64.5h-82q1 28 14 55.5t38 49.5t62 35t87 13q55 0 91.5 -14.5t59 -41t32 -64t9.5 -82.5v-231q0 -19 0.5 -32t1.5 -21q1 -10 3 -16h-73z" />
    <glyph glyph-name="aacute" unicode="&#xe1;" horiz-adv-x="516" 
d="M254 546l-49 40l116 163l65 -52zM374 196v29l-150 -5q-54 -2 -81 -22t-27 -62q0 -35 30.5 -57t78.5 -22q33 0 60.5 11t47 30t30.5 44t11 54zM383 0q-2 6 -3 16q-1 8 -1.5 21t-0.5 33q-20 -33 -60.5 -56.5t-96.5 -23.5q-34 0 -67 8t-59.5 25.5t-42.5 45t-16 67.5
q0 37 16.5 64.5t43 45.5t59 27.5t64.5 10.5l154 5v42q0 57 -30 80.5t-84 23.5q-56 0 -82 -21.5t-37 -64.5h-82q1 28 14 55.5t38 49.5t62 35t87 13q55 0 91.5 -14.5t59 -41t32 -64t9.5 -82.5v-231q0 -19 0.5 -32t1.5 -21q1 -10 3 -16h-73z" />
    <glyph glyph-name="acircumflex" unicode="&#xe2;" horiz-adv-x="516" 
d="M227 693h74l94 -122l-48 -39l-84 104l-84 -104l-48 39zM374 196v29l-150 -5q-54 -2 -81 -22t-27 -62q0 -35 30.5 -57t78.5 -22q33 0 60.5 11t47 30t30.5 44t11 54zM383 0q-2 6 -3 16q-1 8 -1.5 21t-0.5 33q-20 -33 -60.5 -56.5t-96.5 -23.5q-34 0 -67 8t-59.5 25.5
t-42.5 45t-16 67.5q0 37 16.5 64.5t43 45.5t59 27.5t64.5 10.5l154 5v42q0 57 -30 80.5t-84 23.5q-56 0 -82 -21.5t-37 -64.5h-82q1 28 14 55.5t38 49.5t62 35t87 13q55 0 91.5 -14.5t59 -41t32 -64t9.5 -82.5v-231q0 -19 0.5 -32t1.5 -21q1 -10 3 -16h-73z" />
    <glyph glyph-name="atilde" unicode="&#xe3;" horiz-adv-x="516" 
d="M147 612h-52q4 25 14 42t24 27t31 14.5t35 4.5q16 0 33.5 -6.5t34.5 -14t33 -13.5t29 -6q14 0 26.5 4.5t23.5 24.5h55q-3 -23 -13 -40t-24.5 -28t-32.5 -16t-36 -5q-17 0 -33.5 6.5t-32.5 14.5t-32 14.5t-32 6.5q-14 0 -27 -4.5t-24 -25.5zM374 196v29l-150 -5
q-54 -2 -81 -22t-27 -62q0 -35 30.5 -57t78.5 -22q33 0 60.5 11t47 30t30.5 44t11 54zM383 0q-2 6 -3 16q-1 8 -1.5 21t-0.5 33q-20 -33 -60.5 -56.5t-96.5 -23.5q-34 0 -67 8t-59.5 25.5t-42.5 45t-16 67.5q0 37 16.5 64.5t43 45.5t59 27.5t64.5 10.5l154 5v42
q0 57 -30 80.5t-84 23.5q-56 0 -82 -21.5t-37 -64.5h-82q1 28 14 55.5t38 49.5t62 35t87 13q55 0 91.5 -14.5t59 -41t32 -64t9.5 -82.5v-231q0 -19 0.5 -32t1.5 -21q1 -10 3 -16h-73z" />
    <glyph glyph-name="adieresis" unicode="&#xe4;" horiz-adv-x="516" 
d="M209 600h-83v89h83v-89zM377 600h-82v89h82v-89zM374 196v29l-150 -5q-54 -2 -81 -22t-27 -62q0 -35 30.5 -57t78.5 -22q33 0 60.5 11t47 30t30.5 44t11 54zM383 0q-2 6 -3 16q-1 8 -1.5 21t-0.5 33q-20 -33 -60.5 -56.5t-96.5 -23.5q-34 0 -67 8t-59.5 25.5t-42.5 45
t-16 67.5q0 37 16.5 64.5t43 45.5t59 27.5t64.5 10.5l154 5v42q0 57 -30 80.5t-84 23.5q-56 0 -82 -21.5t-37 -64.5h-82q1 28 14 55.5t38 49.5t62 35t87 13q55 0 91.5 -14.5t59 -41t32 -64t9.5 -82.5v-231q0 -19 0.5 -32t1.5 -21q1 -10 3 -16h-73z" />
    <glyph glyph-name="aring" unicode="&#xe5;" horiz-adv-x="516" 
d="M158 671q0 22 8.5 42t23 34.5t34.5 23t43 8.5t42.5 -9t34 -24t23 -34.5t8.5 -40.5q0 -22 -8.5 -42t-23.5 -35t-34.5 -23.5t-41.5 -8.5q-23 0 -43 9t-34.5 24t-23 34.5t-8.5 41.5zM216 671q0 -22 15.5 -35.5t34.5 -13.5q22 0 35.5 14.5t13.5 34.5q0 21 -14.5 35t-34.5 14
q-21 0 -35.5 -14.5t-14.5 -34.5zM374 196v29l-150 -5q-54 -2 -81 -22t-27 -62q0 -35 30.5 -57t78.5 -22q33 0 60.5 11t47 30t30.5 44t11 54zM383 0q-2 6 -3 16q-1 8 -1.5 21t-0.5 33q-20 -33 -60.5 -56.5t-96.5 -23.5q-34 0 -67 8t-59.5 25.5t-42.5 45t-16 67.5
q0 37 16.5 64.5t43 45.5t59 27.5t64.5 10.5l154 5v42q0 57 -30 80.5t-84 23.5q-56 0 -82 -21.5t-37 -64.5h-82q1 28 14 55.5t38 49.5t62 35t87 13q55 0 91.5 -14.5t59 -41t32 -64t9.5 -82.5v-231q0 -19 0.5 -32t1.5 -21q1 -10 3 -16h-73z" />
    <glyph glyph-name="ae" unicode="&#xe6;" horiz-adv-x="851" 
d="M827 163q-20 -95 -77 -134.5t-144 -39.5q-78 0 -128 29.5t-76 80.5q-14 -29 -34 -50t-44 -34t-50 -19t-51 -6q-34 0 -67.5 8t-60 25.5t-43 45t-16.5 67.5q0 37 17 64.5t43.5 45.5t59.5 27.5t65 10.5l152 6v41q0 57 -29 80.5t-83 23.5q-57 0 -84.5 -21.5t-34.5 -64.5h-85
q5 41 23 70t45.5 47.5t62 27t73.5 8.5q63 0 102 -20t60 -58q31 39 76.5 58t104.5 19q50 0 90.5 -16t69.5 -47.5t45 -79t16 -111.5v-18h-372v-14q3 -33 13 -62t28.5 -50.5t46 -34.5t65.5 -13q54 0 88 25t51 83h82zM742 291q-2 29 -12 55.5t-27.5 46t-42.5 31t-56 11.5
q-30 0 -56 -10.5t-46 -28.5t-33 -42.5t-16 -52.5v-10h289zM374 196v29l-150 -5q-54 -2 -81 -22t-27 -62q0 -35 30.5 -57t78.5 -22q33 0 60.5 11t47 30t30.5 44t11 54z" />
    <glyph glyph-name="ccedilla" unicode="&#xe7;" horiz-adv-x="521" 
d="M401 331q-14 52 -48 78.5t-85 26.5q-40 0 -68.5 -15.5t-47 -42t-27 -61t-8.5 -72.5t8.5 -72t27 -60t47 -41t68.5 -15q64 0 96 33t41 89h85q-12 -88 -64.5 -136t-135.5 -53l-16 -38q6 3 25 3q27 0 49 -20q21 -20 21 -58q0 -42 -23 -61.5t-65 -19.5q-29 0 -47 14t-26 31
l33 19q17 -23 40 -23q16 0 27 10.5t11 29.5t-11 30t-27 11q-22 0 -34 -10l-33 24l25 58q-101 8 -152 74.5t-51 181.5q0 57 13.5 103.5t42 80.5t72.5 52.5t104 18.5q43 0 80 -12t65.5 -34t47.5 -53.5t26 -70.5h-86z" />
    <glyph glyph-name="egrave" unicode="&#xe8;" horiz-adv-x="515" 
d="M331 576l-49 -40l-134 152l65 52zM117 291h290q-2 29 -12 55.5t-27.5 46t-42.5 31t-56 11.5t-58 -11.5t-47.5 -31t-32.5 -45.5t-14 -56zM492 163q-20 -95 -77 -134.5t-144 -39.5q-62 0 -106 19.5t-73 53.5t-42.5 81t-13.5 102q0 65 16.5 113.5t47.5 80t73.5 47t95.5 15.5
q50 0 90.5 -16t69.5 -47.5t45 -79t16 -111.5v-18h-373q1 -35 10.5 -66.5t28.5 -55.5t47.5 -38t67.5 -14q54 0 88 25t51 83h82z" />
    <glyph glyph-name="eacute" unicode="&#xe9;" horiz-adv-x="515" 
d="M117 291h290q-2 29 -12 55.5t-27.5 46t-42.5 31t-56 11.5t-58 -11.5t-47.5 -31t-32.5 -45.5t-14 -56zM492 163q-20 -95 -77 -134.5t-144 -39.5q-62 0 -106 19.5t-73 53.5t-42.5 81t-13.5 102q0 65 16.5 113.5t47.5 80t73.5 47t95.5 15.5q50 0 90.5 -16t69.5 -47.5t45 -79
t16 -111.5v-18h-373q1 -35 10.5 -66.5t28.5 -55.5t47.5 -38t67.5 -14q54 0 88 25t51 83h82zM243 536l-50 40l118 164l65 -52z" />
    <glyph glyph-name="ecircumflex" unicode="&#xea;" horiz-adv-x="515" 
d="M226 692h74l95 -122l-49 -38l-83 104l-84 -104l-50 38zM117 291h290q-2 29 -12 55.5t-27.5 46t-42.5 31t-56 11.5t-58 -11.5t-47.5 -31t-32.5 -45.5t-14 -56zM492 163q-20 -95 -77 -134.5t-144 -39.5q-62 0 -106 19.5t-73 53.5t-42.5 81t-13.5 102q0 65 16.5 113.5
t47.5 80t73.5 47t95.5 15.5q50 0 90.5 -16t69.5 -47.5t45 -79t16 -111.5v-18h-373q1 -35 10.5 -66.5t28.5 -55.5t47.5 -38t67.5 -14q54 0 88 25t51 83h82z" />
    <glyph glyph-name="edieresis" unicode="&#xeb;" horiz-adv-x="515" 
d="M219 581h-82v89h82v-89zM385 581h-81v89h81v-89zM117 291h290q-2 29 -12 55.5t-27.5 46t-42.5 31t-56 11.5t-58 -11.5t-47.5 -31t-32.5 -45.5t-14 -56zM492 163q-20 -95 -77 -134.5t-144 -39.5q-62 0 -106 19.5t-73 53.5t-42.5 81t-13.5 102q0 65 16.5 113.5t47.5 80
t73.5 47t95.5 15.5q50 0 90.5 -16t69.5 -47.5t45 -79t16 -111.5v-18h-373q1 -35 10.5 -66.5t28.5 -55.5t47.5 -38t67.5 -14q54 0 88 25t51 83h82z" />
    <glyph glyph-name="igrave" unicode="&#xec;" horiz-adv-x="202" 
d="M78 0v491h79v-491h-79zM182 576l-48 -40l-134 152l65 52z" />
    <glyph glyph-name="iacute" unicode="&#xed;" horiz-adv-x="172" 
d="M56 0v491h79v-491h-79zM79 536l-49 40l117 164l65 -52z" />
    <glyph glyph-name="icircumflex" unicode="&#xee;" horiz-adv-x="245" 
d="M84 0v491h79v-491h-79zM86 692h74l95 -122l-49 -38l-83 104l-84 -104l-49 38z" />
    <glyph glyph-name="idieresis" unicode="&#xef;" horiz-adv-x="238" 
d="M80 0v491h79v-491h-79zM76 581h-81v89h81v-89zM243 581h-81v89h81v-89z" />
    <glyph glyph-name="eth" unicode="&#xf0;" horiz-adv-x="508" 
d="M142 558v62h95l-44 83h87l43 -83h91v-62h-58q42 -74 65.5 -124.5t35 -86t13.5 -59.5t2 -44q0 -56 -13 -103t-39.5 -81t-67.5 -53.5t-98 -19.5q-60 0 -101.5 20.5t-67.5 55.5t-37.5 81.5t-11.5 99.5q0 56 12.5 103t39.5 81.5t68 54t98 19.5q12 0 24 -2t25 -5l-33 63h-128z
M117 244q0 -35 7 -69t23.5 -60.5t42.5 -43t64 -16.5q39 0 65.5 18t42.5 46t22.5 61.5t6.5 63.5q0 34 -7.5 68t-23.5 61t-42.5 44t-63.5 17q-40 0 -66.5 -18t-42 -46t-22 -61.5t-6.5 -64.5z" />
    <glyph glyph-name="ntilde" unicode="&#xf1;" 
d="M140 491v-64q24 33 66 54t88 21q94 0 148 -41.5t54 -135.5v-325h-79v313q0 29 -10.5 51.5t-29 38.5t-43.5 24t-54 8q-61 0 -99 -36t-38 -99v-300h-79v491h76zM159 612h-52q4 25 14 42t24 27t31 14.5t35 4.5q16 0 33.5 -6.5t34.5 -14t33 -13.5t29 -6q14 0 26.5 4.5
t23.5 24.5h55q-3 -23 -13 -40t-24.5 -28t-32.5 -16t-36 -5q-17 0 -33.5 6.5t-32.5 14.5t-32 14.5t-32 6.5q-14 0 -27 -4.5t-24 -25.5z" />
    <glyph glyph-name="ograve" unicode="&#xf2;" horiz-adv-x="536" 
d="M340 576l-49 -40l-134 152l66 52zM268 501q60 0 103.5 -18.5t72 -52.5t42.5 -80.5t14 -103.5q0 -123 -58.5 -190t-173.5 -67t-173.5 67t-58.5 190q0 57 13.5 103.5t42 80.5t72.5 52.5t104 18.5zM268 436q-40 0 -68.5 -15.5t-47 -42t-27 -61t-8.5 -72.5t8.5 -72t27 -60
t47 -41t68.5 -15t68.5 15t47 41t27 60t8.5 72t-8.5 72.5t-27 61t-47 42t-68.5 15.5z" />
    <glyph glyph-name="oacute" unicode="&#xf3;" horiz-adv-x="536" 
d="M247 536l-48 40l117 164l65 -52zM268 501q60 0 103.5 -18.5t72 -52.5t42.5 -80.5t14 -103.5q0 -123 -58.5 -190t-173.5 -67t-173.5 67t-58.5 190q0 57 13.5 103.5t42 80.5t72.5 52.5t104 18.5zM268 436q-40 0 -68.5 -15.5t-47 -42t-27 -61t-8.5 -72.5t8.5 -72t27 -60
t47 -41t68.5 -15t68.5 15t47 41t27 60t8.5 72t-8.5 72.5t-27 61t-47 42t-68.5 15.5z" />
    <glyph glyph-name="ocircumflex" unicode="&#xf4;" horiz-adv-x="536" 
d="M232 705h73l95 -122l-48 -39l-83 104l-85 -104l-48 39zM268 501q60 0 103.5 -18.5t72 -52.5t42.5 -80.5t14 -103.5q0 -123 -58.5 -190t-173.5 -67t-173.5 67t-58.5 190q0 57 13.5 103.5t42 80.5t72.5 52.5t104 18.5zM268 436q-40 0 -68.5 -15.5t-47 -42t-27 -61
t-8.5 -72.5t8.5 -72t27 -60t47 -41t68.5 -15t68.5 15t47 41t27 60t8.5 72t-8.5 72.5t-27 61t-47 42t-68.5 15.5z" />
    <glyph glyph-name="otilde" unicode="&#xf5;" horiz-adv-x="536" 
d="M268 501q60 0 103.5 -18.5t72 -52.5t42.5 -80.5t14 -103.5q0 -123 -58.5 -190t-173.5 -67t-173.5 67t-58.5 190q0 57 13.5 103.5t42 80.5t72.5 52.5t104 18.5zM268 436q-40 0 -68.5 -15.5t-47 -42t-27 -61t-8.5 -72.5t8.5 -72t27 -60t47 -41t68.5 -15t68.5 15t47 41
t27 60t8.5 72t-8.5 72.5t-27 61t-47 42t-68.5 15.5zM150 612h-52q4 25 14 42t24 27t31 14.5t35 4.5q16 0 33.5 -6.5t34.5 -14t33 -13.5t29 -6q14 0 26.5 4.5t23.5 24.5h55q-3 -23 -13 -40t-24.5 -28t-32.5 -16t-36 -5q-17 0 -33.5 6.5t-32.5 14.5t-32 14.5t-32 6.5
q-14 0 -27 -4.5t-24 -25.5z" />
    <glyph glyph-name="odieresis" unicode="&#xf6;" horiz-adv-x="536" 
d="M226 579h-83v89h83v-89zM393 579h-82v89h82v-89zM268 501q60 0 103.5 -18.5t72 -52.5t42.5 -80.5t14 -103.5q0 -123 -58.5 -190t-173.5 -67t-173.5 67t-58.5 190q0 57 13.5 103.5t42 80.5t72.5 52.5t104 18.5zM268 436q-40 0 -68.5 -15.5t-47 -42t-27 -61t-8.5 -72.5
t8.5 -72t27 -60t47 -41t68.5 -15t68.5 15t47 41t27 60t8.5 72t-8.5 72.5t-27 61t-47 42t-68.5 15.5z" />
    <glyph glyph-name="divide" unicode="&#xf7;" horiz-adv-x="565" 
d="M517 269h-469v74h469v-74zM332 82h-99v101h99v-101zM332 429h-99v102h99v-102z" />
    <glyph glyph-name="oslash" unicode="&#xf8;" horiz-adv-x="532" 
d="M266 501q44 0 77 -10l17 38h69l-28 -63q50 -32 73.5 -88.5t23.5 -131.5q0 -123 -58.5 -190t-173.5 -67q-40 0 -73 9l-15 -36h-69l26 59q-51 30 -76 87t-25 138q0 57 13.5 103.5t42 80.5t72.5 52.5t104 18.5zM266 436q-40 0 -68.5 -15.5t-47 -42t-27 -61t-8.5 -72.5
q0 -46 12.5 -86t39.5 -66l148 335q-22 8 -49 8zM266 57q40 0 68.5 15t47 41t27 60t8.5 72q0 45 -11.5 83.5t-36.5 65.5l-147 -332q22 -5 44 -5z" />
    <glyph glyph-name="ugrave" unicode="&#xf9;" 
d="M351 576l-47 -39l-134 150l65 51zM420 0v67q-24 -33 -66 -55.5t-88 -22.5q-94 0 -148 41.5t-54 135.5v325h79v-313q0 -29 10.5 -51.5t29 -38.5t43.5 -24t54 -8q61 0 99 36t38 99v300h79v-491h-76z" />
    <glyph glyph-name="uacute" unicode="&#xfa;" 
d="M258 537l-47 39l114 162l66 -51zM420 0v67q-24 -33 -66 -55.5t-88 -22.5q-94 0 -148 41.5t-54 135.5v325h79v-313q0 -29 10.5 -51.5t29 -38.5t43.5 -24t54 -8q61 0 99 36t38 99v300h79v-491h-76z" />
    <glyph glyph-name="ucircumflex" unicode="&#xfb;" 
d="M244 691h73l96 -120l-49 -39l-84 102l-84 -102l-48 39zM420 0v67q-24 -33 -66 -55.5t-88 -22.5q-94 0 -148 41.5t-54 135.5v325h79v-313q0 -29 10.5 -51.5t29 -38.5t43.5 -24t54 -8q61 0 99 36t38 99v300h79v-491h-76z" />
    <glyph glyph-name="udieresis" unicode="&#xfc;" 
d="M236 600h-83v89h83v-89zM404 600h-82v89h82v-89zM420 0v67q-24 -33 -66 -55.5t-88 -22.5q-94 0 -148 41.5t-54 135.5v325h79v-313q0 -29 10.5 -51.5t29 -38.5t43.5 -24t54 -8q61 0 99 36t38 99v300h79v-491h-76z" />
    <glyph glyph-name="yacute" unicode="&#xfd;" horiz-adv-x="492" 
d="M229 537l-49 39l116 162l65 -51zM8 491h83l153 -398l156 398h84l-237 -572q-9 -23 -20 -43t-25.5 -35t-33 -23.5t-43.5 -8.5q-22 0 -37.5 2.5t-29.5 7.5v65q6 -2 13 -3q6 -1 14.5 -1.5t19.5 -0.5q25 0 40.5 12t26 30t17 39t13.5 39z" />
    <glyph glyph-name="thorn" unicode="&#xfe;" horiz-adv-x="550" 
d="M287 502q60 0 103 -20t70.5 -54.5t40.5 -81t13 -100.5q0 -55 -13 -102t-40.5 -81.5t-70.5 -54t-103 -19.5q-40 0 -78 12t-62 42v-243h-80v901h82v-254q18 24 56.5 39.5t81.5 15.5zM287 435q-43 0 -71 -17t-44.5 -44t-23.5 -61t-7 -67q0 -35 8 -69t25.5 -60.5t45.5 -43
t67 -16.5q37 0 64.5 15t45.5 41t26.5 60t8.5 73q0 34 -8.5 67.5t-26 60.5t-45 44t-65.5 17z" />
    <glyph glyph-name="ydieresis" unicode="&#xff;" horiz-adv-x="492" 
d="M202 580h-79v89h79v-89zM369 580h-81v89h81v-89zM8 491h83l153 -398l156 398h84l-237 -572q-9 -23 -20 -43t-25.5 -35t-33 -23.5t-43.5 -8.5q-22 0 -37.5 2.5t-29.5 7.5v65q6 -2 13 -3q6 -1 14.5 -1.5t19.5 -0.5q25 0 40.5 12t26 30t17 39t13.5 39z" />
    <glyph glyph-name="Lslash" unicode="&#x141;" horiz-adv-x="547" 
d="M129 693h82v-265l118 62v-80l-118 -62v-272h316v-76h-398v306l-89 -46v80l89 46v307z" />
    <glyph glyph-name="lslash" unicode="&#x142;" horiz-adv-x="286" 
d="M178 704v-328l110 57v-80l-110 -57v-296h-79v255l-100 -52v80l100 52v369h79z" />
    <glyph glyph-name="OE" unicode="&#x152;" horiz-adv-x="978" 
d="M317 704q69 0 118 -26t81 -70v85h413v-76h-330v-233h310v-74h-310v-234h339v-76h-422v89q-27 -45 -76.5 -72t-122.5 -27q-80 0 -133.5 29.5t-86 79t-46 114t-13.5 135.5q0 69 12.5 133t44 113.5t85.5 79.5t137 30zM323 70q60 0 97.5 24t58.5 63.5t28.5 89.5t7.5 101
q0 54 -8.5 103.5t-30 88t-58.5 61t-94 22.5h-13q-57 0 -93.5 -22.5t-58 -61t-30 -88t-8.5 -103.5q0 -51 7.5 -101t28.5 -89.5t58 -63.5t96 -24h12z" />
    <glyph glyph-name="oe" unicode="&#x153;" horiz-adv-x="901" 
d="M875 163q-20 -95 -77 -134.5t-144 -39.5q-71 0 -118.5 26.5t-75.5 69.5q-29 -45 -76.5 -70.5t-115.5 -25.5q-115 0 -173.5 67t-58.5 190q0 57 13.5 103.5t42 80.5t72.5 52.5t104 18.5q69 0 116 -26.5t75 -69.5q30 47 79.5 71.5t113.5 24.5q50 0 90.5 -16t69.5 -47.5
t45 -79t16 -111.5v-18h-373q1 -35 10.5 -66.5t28.5 -55.5t47.5 -38t67.5 -14q54 0 88 25t51 83h82zM268 436q-40 0 -68.5 -15.5t-47 -42t-27 -61t-8.5 -72.5t8.5 -72t27 -60t47 -41t68.5 -15q39 0 67 14.5t46.5 39t27.5 57.5t10 69v8q0 38 -8.5 72.5t-27 61t-47 42
t-68.5 15.5zM500 291h290q-2 29 -12 55.5t-27.5 46t-42.5 31t-56 11.5t-58 -11.5t-47.5 -31t-32.5 -45.5t-14 -56z" />
    <glyph glyph-name="Ydieresis" unicode="&#x178;" horiz-adv-x="584" 
d="M248 271l-246 422h95l194 -345l199 345h92l-252 -422v-271h-82v271zM230 760h-86v94h86v-94zM438 760h-86v94h86v-94z" />
    <glyph glyph-name="circumflex" unicode="&#x2c6;" horiz-adv-x="246" 
d="M88 693h74l123 -161h-76l-83 105l-84 -105h-81z" />
    <glyph glyph-name="ring" unicode="&#x2da;" horiz-adv-x="213" 
d="M-2 671q0 22 8.5 42t23 34.5t34.5 23t43 8.5t42.5 -9t34 -24t23 -34.5t8.5 -40.5q0 -22 -8.5 -42t-23.5 -35t-34.5 -23.5t-41.5 -8.5q-23 0 -43 9t-34.5 24t-23 34.5t-8.5 41.5zM56 671q0 -22 15.5 -35.5t34.5 -13.5q22 0 35.5 14.5t13.5 34.5q0 21 -14.5 35t-34.5 14
q-21 0 -35.5 -14.5t-14.5 -34.5z" />
    <glyph glyph-name="tilde" unicode="&#x2dc;" horiz-adv-x="218" 
d="M-6 612h-52q4 25 14 42t24 27t31 14.5t35 4.5q16 0 33.5 -6.5t34.5 -14t33 -13.5t29 -6q14 0 26.5 4.5t23.5 24.5h55q-3 -23 -13 -40t-24.5 -28t-32.5 -16t-36 -5q-17 0 -33.5 6.5t-32.5 14.5t-32 14.5t-32 6.5q-14 0 -27 -4.5t-24 -25.5z" />
    <glyph glyph-name="endash" unicode="&#x2013;" horiz-adv-x="516" 
d="M516 257h-516v69h516v-69z" />
    <glyph glyph-name="emdash" unicode="&#x2014;" horiz-adv-x="1195" 
d="M1065 257h-935v69h935v-69z" />
    <glyph glyph-name="quoteleft" unicode="&#x2018;" horiz-adv-x="312" 
d="M164 693h65l-46 -202h-99z" />
    <glyph glyph-name="quoteright" unicode="&#x2019;" horiz-adv-x="311" 
d="M146 491h-63l46 202h98z" />
    <glyph glyph-name="quotesinglbase" unicode="&#x201a;" horiz-adv-x="307" 
d="M148 -95h-65l41 200h99z" />
    <glyph glyph-name="quotedblleft" unicode="&#x201c;" horiz-adv-x="443" 
d="M312 693h65l-46 -202h-99zM147 693h64l-46 -202h-99z" />
    <glyph glyph-name="quotedblright" unicode="&#x201d;" horiz-adv-x="442" 
d="M130 491h-64l46 202h98zM295 491h-63l46 202h98z" />
    <glyph glyph-name="quotedblbase" unicode="&#x201e;" horiz-adv-x="432" 
d="M291 -95h-65l41 200h99zM131 -95h-65l41 200h99z" />
    <glyph glyph-name="dagger" unicode="&#x2020;" horiz-adv-x="379" 
d="M337 418h-112v-584h-65v584h-112v73h112v260h65v-260h112v-73z" />
    <glyph glyph-name="daggerdbl" unicode="&#x2021;" horiz-adv-x="379" 
d="M337 418h-112v-251h112v-73h-112v-260h-65v260h-112v73h112v251h-112v73h112v260h65v-260h112v-73z" />
    <glyph glyph-name="bullet" unicode="&#x2022;" horiz-adv-x="861" 
d="M72 346q0 74 28 139.5t77 114t114.5 77t139.5 28.5t139.5 -28.5t114 -77t77 -114t28.5 -139.5t-28.5 -139.5t-77 -114.5t-114 -77t-139.5 -28t-139.5 28t-114.5 77t-77 114.5t-28 139.5z" />
    <glyph glyph-name="ellipsis" unicode="&#x2026;" horiz-adv-x="816" 
d="M214 0h-103v103h103v-103zM459 0h-103v103h103v-103zM704 0h-103v103h103v-103z" />
    <glyph glyph-name="perthousand" unicode="&#x2030;" horiz-adv-x="941" 
d="M707 578l-580 -436l-42 55l578 433zM418 165q0 -15 2 -34t8.5 -35.5t19 -27.5t33.5 -11t33 11t18 27.5t8 35.5t2 34q0 16 -2.5 33t-9 31.5t-18.5 24t-31 9.5q-21 0 -33 -9.5t-19 -24t-9 -31.5t-2 -33zM362 171q0 28 5.5 56t19 50t36.5 35.5t58 13.5t57.5 -14t36 -36.5
t19 -51t5.5 -57.5q0 -173 -118 -173q-59 0 -89 43t-30 134zM688 165q0 -15 2 -34t8.5 -35.5t19 -27.5t33.5 -11t33 11t18 27.5t8 35.5t2 34q0 16 -2.5 33t-9 31.5t-18.5 24t-31 9.5q-21 0 -33 -9.5t-19 -24t-9 -31.5t-2 -33zM632 171q0 28 5.5 56t19 50t36.5 35.5t58 13.5
t57.5 -14t36 -36.5t19 -51t5.5 -57.5q0 -173 -118 -173q-59 0 -89 43t-30 134zM128 536q0 -15 2 -34t8.5 -35.5t19 -27.5t33.5 -11t33 11t18 27.5t8 35.5t2 34q0 16 -2.5 33t-9 31.5t-18.5 24t-31 9.5q-21 0 -33 -9.5t-19 -24t-9 -31.5t-2 -33zM72 542q0 28 5.5 56t19 50
t36.5 35.5t58 13.5t57.5 -14t36 -36.5t19 -51t5.5 -57.5q0 -173 -118 -173q-59 0 -89 43t-30 134z" />
    <glyph glyph-name="guilsinglleft" unicode="&#x2039;" horiz-adv-x="360" 
d="M303 471l-160 -225l160 -224h-93l-160 224l160 225h93z" />
    <glyph glyph-name="guilsinglright" unicode="&#x203a;" horiz-adv-x="360" 
d="M150 471l160 -225l-160 -224h-93l160 224l-160 225h93z" />
    <glyph glyph-name="fraction" unicode="&#x2044;" horiz-adv-x="481" 
d="M481 704l-421 -748l-60 33l420 746z" />
    <glyph glyph-name="Euro" unicode="&#x20ac;" horiz-adv-x="598" 
d="M13 240v71h69q-1 6 -1 15v20v36h-68v72h75q18 122 85.5 186.5t188.5 64.5q50 0 92.5 -11.5t74 -33.5t49.5 -53.5t20 -71.5h-84q-17 45 -57 66.5t-95 21.5q-73 0 -121 -42t-62 -127h244v-72h-251v-36v-20t1 -15h250v-71h-244q14 -85 62.5 -127t120.5 -42q54 0 95 20t56 68
h87q-6 -44 -27.5 -76t-53.5 -53t-73 -31t-84 -10q-68 0 -116.5 19.5t-81 53.5t-51 80t-25.5 98h-75z" />
    <glyph glyph-name="trademark" unicode="&#x2122;" horiz-adv-x="661" 
d="M280 693v-41h-81v-242h-44v242h-91v41h216zM454 493l79 200h65v-283h-43v234l-89 -234h-23l-89 234v-234h-43v283h64z" />
    <glyph glyph-name="minus" unicode="&#x2212;" horiz-adv-x="385" 
d="M337 280h-289v73h289v-73z" />
    </font>
</defs>
</svg>
